<?xml version="1.0" encoding="UTF-8"?>
<svg version="1.1" xmlns="http://www.w3.org/2000/svg" width="186" height="617">
<path d="M0 0 C2.34765625 0.4296875 2.34765625 0.4296875 4.91015625 2.2421875 C7.80263347 6.64378327 7.4308534 10.35466151 7.34765625 15.4296875 C8.17910156 15.00816406 9.01054688 14.58664062 9.8671875 14.15234375 C11.49720703 13.33056641 11.49720703 13.33056641 13.16015625 12.4921875 C14.23910156 11.94691406 15.31804687 11.40164063 16.4296875 10.83984375 C20.5898639 8.82937028 23.69887675 8.24771637 28.28515625 8.1796875 C29.84556641 8.14101562 29.84556641 8.14101562 31.4375 8.1015625 C34.70687417 8.47018992 36.05798981 9.09651196 38.34765625 11.4296875 C38.72265625 14.4921875 38.72265625 14.4921875 38.34765625 17.4296875 C35.9870702 19.79027355 35.3494839 19.72007931 32.12890625 19.921875 C31.28360352 19.98455566 30.43830078 20.04723633 29.56738281 20.11181641 C28.22111816 20.2072876 28.22111816 20.2072876 26.84765625 20.3046875 C16.08037597 21.25563845 7.87351274 22.71403266 0.2890625 30.97265625 C-16.44586279 52.15226994 -20.68022204 76.91030567 -17.98681641 103.12915039 C-14.27155676 134.23699226 -3.46123215 163.78121017 6.35180664 193.35115051 C31.62842744 269.64259429 31.62842744 269.64259429 20.34765625 306.4296875 C19.19176585 311.1500776 19.51015463 313.8945108 21.22265625 318.4296875 C35.63131893 357.12148099 13.73355375 405.32338982 1.65240479 441.9928894 C-20.97472448 508.30119571 -20.97472448 508.30119571 -9.3125 575.2890625 C-2.88344106 587.89785399 5.58036206 597.84058944 19.34765625 602.4296875 C26.37037411 603.32348796 30.5336209 601.11749785 36.61328125 597.64453125 C39.34765625 596.4296875 39.34765625 596.4296875 41.58203125 596.62109375 C43.34765625 597.4296875 43.34765625 597.4296875 45.34765625 599.4296875 C45.34765625 604.01861446 44.86473668 605.88855682 41.66015625 609.2421875 C36.24865707 612.81581903 31.82403367 614.0564337 25.34765625 613.4296875 C16.80343407 611.41146246 10.21477396 607.83830233 3.34765625 602.4296875 C3.26128906 603.09355469 3.17492188 603.75742187 3.0859375 604.44140625 C2.38576585 608.84156753 1.74812182 611.85759383 -0.83984375 615.5546875 C-4.46377834 617.97064389 -6.38024961 618.20643189 -10.65234375 617.4296875 C-13.33210637 615.03200516 -14.41946794 613.14494893 -15.52734375 609.7421875 C-15.64013995 606.75308822 -15.35558788 604.68573123 -14.71484375 601.8046875 C-12.62119262 592.09247255 -13.04855218 584.62098877 -17.21484375 575.56640625 C-18.7519371 572.21236831 -20.07057485 568.83123387 -21.33984375 565.3671875 C-21.73558594 564.30371094 -22.13132812 563.24023438 -22.5390625 562.14453125 C-35.57762735 518.63689908 -15.46513017 470.0274342 -1.70678711 429.08032227 C9.45445943 395.78954534 9.45445943 395.78954534 16.34765625 361.4296875 C16.4765625 360.54539062 16.60546875 359.66109375 16.73828125 358.75 C18.41769838 345.27046779 17.29228411 332.61040267 14.34765625 319.4296875 C11.36017533 319.4296875 10.45116158 321.12125728 8.34765625 323.1796875 C0.68437361 330.16316281 -8.50111114 332.84511888 -18.765625 332.70703125 C-26.55930499 331.95824738 -34.61118657 329.74251227 -40.28515625 324.125 C-44.06371572 319.43958626 -46.45774175 314.55895349 -46.09765625 308.4375 C-44.58425562 301.61392171 -39.35481713 296.15778109 -33.65234375 292.4296875 C-25.43847348 287.92311271 -14.45573749 288.22453281 -5.4921875 290.0859375 C1.96467442 292.51911889 7.84056513 296.92259638 13.34765625 302.4296875 C13.83485838 301.07839103 14.31193809 299.72344434 14.78515625 298.3671875 C15.05199219 297.61308594 15.31882813 296.85898437 15.59375 296.08203125 C25.96462934 259.59588062 5.96317212 214.97774166 -5.57653809 180.75964355 C-36.52288487 88.91243873 -36.52288487 88.91243873 -18.08203125 47.27734375 C-15.99888922 43.12813463 -13.65231803 39.16135341 -11.203125 35.21875 C-9.20977108 31.63372557 -7.51153965 28.21320611 -7.83984375 24.0546875 C-8.57481655 21.54212096 -8.57481655 21.54212096 -9.39453125 19.62109375 C-11.45137724 14.59651284 -12.27795472 10.8814402 -11.65234375 5.4296875 C-9.09815937 -0.14307841 -5.62999687 -0.28191442 0 0 Z M-2.65234375 5.4296875 C-3.64234375 6.0896875 -4.63234375 6.7496875 -5.65234375 7.4296875 C-4.6619067 12.26597055 -3.69535529 16.90587623 -1.65234375 21.4296875 C0.69910707 17.90251127 1.05775033 15.63332328 1.34765625 11.4296875 C0.66772198 8.59893202 0.66772198 8.59893202 -0.65234375 6.4296875 C-1.31234375 6.0996875 -1.97234375 5.7696875 -2.65234375 5.4296875 Z M-28.65234375 303.4296875 C-31.00805478 307.46804927 -31.38861761 311.85042325 -30.65234375 316.4296875 C-28.57500705 320.36178911 -26.4709313 323.15032478 -22.65234375 325.4296875 C-14.46273642 326.56175028 -6.63582081 326.0540629 0.34765625 321.4296875 C3.91661256 318.65245807 7.15333255 315.6240112 10.34765625 312.4296875 C10.18961002 309.23715364 9.61186892 307.73925857 7.52734375 305.296875 C-4.04567324 295.29308066 -16.68499538 291.46233913 -28.65234375 303.4296875 Z M-6.65234375 593.4296875 C-7.95055635 599.19050591 -8.90941347 604.51708405 -8.65234375 610.4296875 C-7.33234375 610.4296875 -6.01234375 610.4296875 -4.65234375 610.4296875 C-2.66426981 604.46546567 -3.35423332 599.17496357 -5.65234375 593.4296875 C-5.98234375 593.4296875 -6.31234375 593.4296875 -6.65234375 593.4296875 Z " fill="#FFFFFF" transform="translate(59.65234375,-0.4296875)"/>
<path d="M0 0 C1.67542976 0.28604898 3.34385343 0.61781233 5 1 C5.53695393 16.53188951 4.45025957 31.80687703 -1.1328125 46.45703125 C-3.12521853 52.29962731 -3.01261542 56.0468381 -1.125 61.9375 C3.82719086 77.57326346 4.05636883 96.31923714 -1 112 C-4.75 113.125 -4.75 113.125 -7 112 C-6.55318832 107.36076387 -6.10718335 102.73837422 -5.4375 98.125 C-3.75144066 84.50055273 -5.17794925 70.42595682 -10.29296875 57.68359375 C-11.58965987 52.76189872 -9.98843299 48.63441118 -8.125 44.0625 C-3.81395529 32.4101835 -2.5924254 20.44770593 -1.64599609 8.14916992 C-1.57461426 7.23627197 -1.50323242 6.32337402 -1.4296875 5.3828125 C-1.34050049 4.15135498 -1.34050049 4.15135498 -1.24951172 2.89501953 C-1 1 -1 1 0 0 Z " fill="#FFFFFF" transform="translate(93,257)"/>
<path d="M0 0 C2.10372331 0.27866484 3.47762934 0.47762934 5 2 C6.25270572 17.68724419 5.26102067 34.42356125 -1 49 C-1.66 49.66 -2.32 50.32 -3 51 C-4.32 51 -5.64 51 -7 51 C-8.30004137 47.39797454 -7.65671156 45.65027071 -6.1875 42.1875 C-2.70878057 32.54578974 -2.6346752 22.1496433 -2 12 C-2.96421875 12.49371094 -3.9284375 12.98742187 -4.921875 13.49609375 C-6.19780852 14.14344237 -7.47385621 14.79056599 -8.75 15.4375 C-9.38421875 15.76298828 -10.0184375 16.08847656 -10.671875 16.42382812 C-15.63879305 18.93315652 -19.22446806 20.14375782 -24.75 20.0625 C-25.54921875 20.05347656 -26.3484375 20.04445313 -27.171875 20.03515625 C-27.77515625 20.02355469 -28.3784375 20.01195312 -29 20 C-29.66 18.68 -30.32 17.36 -31 16 C-29.36829802 14.02423307 -28.52474059 13.07666988 -25.94140625 12.69921875 C-25.15636719 12.69535156 -24.37132812 12.69148438 -23.5625 12.6875 C-15.5858231 12.10355586 -7.94627958 8.44888298 -2.5 2.5625 C-1.675 1.716875 -0.85 0.87125 0 0 Z " fill="#FFFFFF" transform="translate(68,325)"/>
<path d="M0 0 C2.42578125 0.12890625 2.42578125 0.12890625 5 1 C7.03503235 4.38762182 7.92906818 8.20978968 9 12 C9.34224609 13.11375 9.34224609 13.11375 9.69140625 14.25 C11.21522561 20.21740447 11.20414206 26.25241863 11.25 32.375 C11.26401855 33.69649048 11.26401855 33.69649048 11.27832031 35.04467773 C11.27203613 36.30260132 11.27203613 36.30260132 11.265625 37.5859375 C11.26336914 38.3392334 11.26111328 39.0925293 11.25878906 39.86865234 C10.96710904 42.27088501 10.19189624 43.91033485 9 46 C6.9375 46.375 6.9375 46.375 4 46 C2.390625 44.76953125 2.390625 44.76953125 0.6875 43.1875 C-5.41944564 37.61901624 -11.57828159 36.68094249 -19.6796875 36.30859375 C-22 36 -22 36 -24 34 C-23.46428571 30.46428571 -23.46428571 30.46428571 -22 29 C-14.43763202 28.94296857 -7.8808294 29.95928063 -1.0234375 33.16015625 C1.09666723 34.19167449 1.09666723 34.19167449 4 34 C3.67776196 25.76626243 3.11326179 18.29845785 0.703125 10.3828125 C-0.22385449 7.241382 -0.71645618 4.26075398 -1 1 C-0.67 0.67 -0.34 0.34 0 0 Z " fill="#FFFFFF" transform="translate(63,248)"/>
<path d="M0 0 C2.31640625 0.2109375 2.31640625 0.2109375 5 1 C6.58984375 3.0390625 6.58984375 3.0390625 7.9375 5.625 C12.79591267 14.24714502 17.42819594 19.61262147 27 23 C32.6334801 24.25097599 36.69958964 24.42304474 42 22 C44.8125 22.375 44.8125 22.375 47 23 C46.62118922 25.74637817 46.22167713 26.80049058 44.125 28.6875 C38.58322057 32.11036376 31.83285411 31.67821607 25.59375 30.57421875 C14.58086219 27.41383017 8.04460449 19.27204036 2 10 C1.42378906 9.12214844 0.84757812 8.24429688 0.25390625 7.33984375 C-1 5 -1 5 -0.6875 2.1875 C-0.460625 1.465625 -0.23375 0.74375 0 0 Z " fill="#FFFFFF" transform="translate(52,563)"/>
<path d="M0 0 C-0.33 1.65 -0.66 3.3 -1 5 C-2.14275391 5.03867187 -2.14275391 5.03867187 -3.30859375 5.078125 C-14.58405572 5.69750119 -22.79218797 9.11093796 -31 17 C-33.8687919 20.73431548 -35.91977947 24.79291723 -38 29 C-39.65 28.67 -41.3 28.34 -43 28 C-43 20.48458459 -38.8878493 15.4335422 -34 10 C-25.6727727 2.74494789 -11.16357035 -7.14468502 0 0 Z " fill="#FFFFFF" transform="translate(96,24)"/>
<path d="M0 0 C0.8971875 0.309375 0.8971875 0.309375 1.8125 0.625 C1.36262496 4.1115316 0.27431088 6.72642642 -1.3125 9.8125 C-3.6662772 14.93945471 -3.53154666 19.20148779 -2.1875 24.625 C-0.46128352 28.3910519 -0.46128352 28.3910519 2.8125 30.625 C2.3175 33.1 2.3175 33.1 1.8125 35.625 C-0.4375 35.9375 -0.4375 35.9375 -3.1875 35.625 C-8.41556901 30.55069773 -10.35998165 24.90873095 -10.6875 17.8125 C-10.53940293 11.61580699 -8.76565872 6.68481881 -5.1875 1.625 C-2.1875 -0.375 -2.1875 -0.375 0 0 Z " fill="#FFFFFF" transform="translate(10.1875,293.375)"/>
<path d="M0 0 C3.12541875 2.27895117 4.58353173 3.88941794 5.9375 7.5 C6.01321286 10.52851456 5.46858143 12.35655343 4 15 C3.01 15.33 2.02 15.66 1 16 C0.01 15.34 -0.98 14.68 -2 14 C-2.1875 10.375 -2.1875 10.375 -2 7 C-3.27875 7.020625 -4.5575 7.04125 -5.875 7.0625 C-9.75 7.125 -9.75 7.125 -12 6 C-11.625 3.5625 -11.625 3.5625 -11 1 C-7.51931002 -0.74034499 -3.79742402 -0.58371457 0 0 Z " fill="#FFFFFF" transform="translate(113,580)"/>
<path d="M0 0 C2.4375 0.1875 2.4375 0.1875 5 1 C7.66400242 4.29828872 7.42101803 7.93015901 7 12 C5.09226261 15.8888493 3.84291751 17.58714245 -0.0625 19.5 C-3 20 -3 20 -6 18 C-6 16.68 -6 15.36 -6 14 C-4.35 13.34 -2.7 12.68 -1 12 C-1.01160156 11.21753906 -1.02320312 10.43507813 -1.03515625 9.62890625 C-1.04417969 8.61699219 -1.05320312 7.60507812 -1.0625 6.5625 C-1.07410156 5.55316406 -1.08570312 4.54382813 -1.09765625 3.50390625 C-1 1 -1 1 0 0 Z " fill="#FFFFFF" transform="translate(105,9)"/>
</svg>
