<?xml version="1.0" encoding="UTF-8"?>
<svg version="1.1" xmlns="http://www.w3.org/2000/svg" width="185" height="617">
<path d="M0 0 C2.3515625 0.40234375 2.3515625 0.40234375 4.9765625 1.77734375 C7.14308251 5.9134274 6.96876903 9.8335966 6.3515625 14.40234375 C5.36644448 16.74199905 4.36685791 19.0756251 3.3515625 21.40234375 C2.24111551 25.96149602 2.70188914 29.19603666 4.93359375 33.33984375 C5.97153825 34.95927532 7.01032357 36.57833139 8.07226562 38.18212891 C24.67984804 63.53860909 22.93402839 94.70843002 17.1640625 123.15234375 C11.90924698 147.61887282 3.58591459 171.31982496 -4.0390625 195.12109375 C-12.85694323 221.98409603 -12.85694323 221.98409603 -19.6484375 249.40234375 C-19.87273437 250.44519531 -20.09703125 251.48804688 -20.328125 252.5625 C-21.82569732 260.84017713 -21.88442123 269.13405581 -21.9609375 277.52734375 C-21.97866211 278.70723877 -21.99638672 279.88713379 -22.01464844 281.1027832 C-22.00807324 288.94645096 -20.91515314 295.89465221 -18.6484375 303.40234375 C-17.9884375 302.70109375 -17.3284375 301.99984375 -16.6484375 301.27734375 C-8.26919303 292.9922481 -0.66367022 289.16451646 11.2265625 288.96484375 C20.69936416 289.03534722 29.03062595 291.14780779 35.98046875 297.84765625 C40.10057457 302.51945715 40.91329601 306.88718748 40.6953125 312.9453125 C39.82111303 319.19385187 36.07123341 323.26258711 31.28125 327.1171875 C28.16556074 329.19221132 24.93343038 330.37676619 21.3515625 331.40234375 C20.5678125 331.62921875 19.7840625 331.85609375 18.9765625 332.08984375 C7.8718312 333.41183557 -2.69887933 331.8043827 -11.7734375 324.83984375 C-14.1831533 322.79840527 -16.42275412 320.64017007 -18.6484375 318.40234375 C-21.10856876 326.7583553 -22.1691591 334.45184577 -22.0859375 343.15234375 C-22.07546387 344.32917725 -22.06499023 345.50601074 -22.05419922 346.71850586 C-21.36267042 380.79347312 -8.38919294 413.27148265 2.17132568 445.27069092 C7.52345325 461.51413149 12.72761813 477.6700749 16.3515625 494.40234375 C16.56055176 495.34980469 16.76954102 496.29726563 16.98486328 497.2734375 C23.0272295 525.30317096 23.87739482 553.38231039 10.3515625 579.40234375 C7.20251065 586.86062444 8.03910276 593.60754596 9.89453125 601.26953125 C10.84252462 605.69350031 10.97428729 609.1285885 8.9765625 613.21484375 C5.93079747 617.31491206 5.93079747 617.31491206 2.0390625 617.90234375 C-1.6484375 617.40234375 -1.6484375 617.40234375 -4.4609375 614.96484375 C-7.22159455 611.17802141 -7.96935288 606.96335988 -8.6484375 602.40234375 C-9.12152344 602.7890625 -9.59460938 603.17578125 -10.08203125 603.57421875 C-16.12297733 608.33161098 -22.82960255 612.57930849 -30.6484375 613.40234375 C-32.22625 613.58796875 -32.22625 613.58796875 -33.8359375 613.77734375 C-39.68275617 613.20224683 -45.47103899 610.87775266 -49.41796875 606.390625 C-51.01205955 603.81477668 -51.18239049 602.37722467 -50.6484375 599.40234375 C-49.0234375 597.46484375 -49.0234375 597.46484375 -46.6484375 596.40234375 C-43.73791014 596.99767889 -41.36445854 598.00868073 -38.765625 599.4375 C-34.06056886 602.01144247 -30.05008859 603.70225328 -24.6484375 602.40234375 C-8.38059677 595.99322921 -0.0381126 585.57425724 7.1015625 569.65234375 C25.98777767 520.42014216 0.99623002 465.53979074 -14.22900391 418.52050781 C-19.57414548 401.99443512 -24.63792188 385.54392176 -27.6484375 368.40234375 C-27.77686035 367.67208984 -27.9052832 366.94183594 -28.03759766 366.18945312 C-30.80467327 349.67214023 -32.171394 329.66883941 -24.7109375 314.15234375 C-23.31783662 309.23551712 -24.61511719 306.89373143 -26.51953125 302.29296875 C-32.21051307 287.72090457 -30.18194909 270.37146259 -28.0859375 255.27734375 C-27.95429199 254.27372803 -27.82264648 253.2701123 -27.68701172 252.23608398 C-23.92515606 227.51613826 -14.58694356 203.51510511 -6.76416016 179.83691406 C15.76852247 114.49648055 15.76852247 114.49648055 5.76171875 48.17578125 C3.29992975 43.33403557 0.49694289 38.82766248 -2.6484375 34.40234375 C-3.18210938 33.64695313 -3.71578125 32.8915625 -4.265625 32.11328125 C-9.17607642 25.84012083 -15.09391252 22.20986454 -23.05322266 21.05273438 C-26.64267029 20.65795475 -30.22555855 20.33093406 -33.83081055 20.12158203 C-34.66781494 20.06728027 -35.50481934 20.01297852 -36.3671875 19.95703125 C-37.11935547 19.92077637 -37.87152344 19.88452148 -38.64648438 19.84716797 C-41.15813383 19.28909171 -42.08424949 18.41578111 -43.6484375 16.40234375 C-44.0859375 13.90234375 -44.0859375 13.90234375 -43.6484375 11.40234375 C-40.61150919 8.471109 -38.31150554 7.94710792 -34.1484375 7.90234375 C-27.21563723 8.04695431 -21.81951453 10.4568375 -15.6484375 13.40234375 C-14.6584375 13.73234375 -13.6684375 14.06234375 -12.6484375 14.40234375 C-12.60976562 13.51482422 -12.60976562 13.51482422 -12.5703125 12.609375 C-12.29559819 8.78210517 -11.85390193 5.84007232 -10.2109375 2.33984375 C-6.77139299 -0.26078746 -4.23133896 -0.25587743 0 0 Z M-2.6484375 5.40234375 C-3.6384375 6.06234375 -4.6284375 6.72234375 -5.6484375 7.40234375 C-6.08890887 9.73330493 -6.08890887 9.73330493 -5.9609375 12.33984375 C-5.95707031 13.21511719 -5.95320313 14.09039062 -5.94921875 14.9921875 C-5.79856831 17.66182222 -5.79856831 17.66182222 -3.6484375 20.40234375 C0.01164967 14.27861376 0.01164967 14.27861376 0.3515625 7.40234375 C-0.6384375 6.74234375 -1.6284375 6.08234375 -2.6484375 5.40234375 Z M-12.6484375 305.40234375 C-14.42358103 307.38569101 -14.42358103 307.38569101 -15.6484375 309.40234375 C-15.01222476 314.11031806 -11.47162868 316.87683377 -7.97265625 319.75390625 C-0.33711358 325.16936677 8.08654252 326.9706414 17.3515625 325.40234375 C21.21536464 323.61402992 23.44332074 321.29133397 25.28125 317.46875 C26.7867043 312.70147804 26.47624371 308.99165517 24.3515625 304.40234375 C20.19148502 299.52026936 15.40800313 297.21927594 9.3515625 295.40234375 C0.54936451 295.40234375 -6.40373684 299.46413146 -12.6484375 305.40234375 Z M0.3515625 593.40234375 C-0.04078444 595.2946632 -0.41162066 597.19145032 -0.7734375 599.08984375 C-0.98226562 600.14558594 -1.19109375 601.20132813 -1.40625 602.2890625 C-1.66741686 605.64632034 -1.13974698 607.42524815 0.3515625 610.40234375 C1.3415625 610.40234375 2.3315625 610.40234375 3.3515625 610.40234375 C3.60443443 604.33341746 3.04988859 599.24033967 1.3515625 593.40234375 C1.0215625 593.40234375 0.6915625 593.40234375 0.3515625 593.40234375 Z " fill="#FFFFFF" transform="translate(129.6484375,-0.40234375)"/>
<path d="M0 0 C1.67542976 0.28604898 3.34385343 0.61781233 5 1 C5.09498779 1.88558594 5.18997559 2.77117187 5.2878418 3.68359375 C7.3697236 25.1791753 7.3697236 25.1791753 12.94921875 45.94140625 C15.06969752 52.11365485 15.26047826 56.45420421 13.125 62.625 C11.09949339 68.58820478 9.87409867 73.68121682 9.8671875 80 C9.86589844 81.134375 9.86460938 82.26875 9.86328125 83.4375 C9.86714844 84.613125 9.87101562 85.78875 9.875 87 C9.87113281 88.175625 9.86726563 89.35125 9.86328125 90.5625 C9.86457031 91.696875 9.86585937 92.83125 9.8671875 94 C9.86831543 95.03125 9.86944336 96.0625 9.87060547 97.125 C9.99380299 99.86230956 10.43902516 102.32500669 11 105 C11.03824623 107.33301986 11.04574284 109.66711508 11 112 C9.02 112.495 9.02 112.495 7 113 C-1.55439453 99.96919628 1.2344107 80.35170635 4.1171875 65.74609375 C4.844361 62.66043274 5.7205301 59.97197845 6.9375 57.0625 C8.25310804 53.50422333 7.82133676 51.67410647 6.375 48.1875 C5.7871875 46.92679687 5.7871875 46.92679687 5.1875 45.640625 C-0.67465543 32.60504254 -2.0122302 15.12414228 -1 1 C-0.67 0.67 -0.34 0.34 0 0 Z " fill="#FFFFFF" transform="translate(87,257)"/>
<path d="M0 0 C3.52098964 0.31152789 5.18278291 1.88587153 7.625 4.3125 C13.85771784 9.94391667 20.75570761 12.33330018 29.08984375 12.7265625 C31 13 31 13 34 15 C33.125 18.875 33.125 18.875 32 20 C22.24253615 20.78689225 13.78342444 17.89015903 6 12 C5.66063153 19.34041437 6.00846114 26.29415793 7.375 33.5 C7.50108643 34.16966797 7.62717285 34.83933594 7.75708008 35.52929688 C8.33783283 38.40733797 9.0268009 41.06653697 10.125 43.79296875 C11.22199194 46.55993503 10.80437007 48.18470474 10 51 C7.63671875 50.78125 7.63671875 50.78125 5 50 C3.70703125 48.03125 3.70703125 48.03125 2.8125 45.5 C2.50957031 44.6853125 2.20664063 43.870625 1.89453125 43.03125 C-0.76550898 34.01731456 -1.46071937 25.46412063 -1.75 16.0625 C-1.80546946 14.72328565 -1.86145539 13.38409258 -1.91796875 12.04492188 C-1.98177734 10.15290039 -1.98177734 10.15290039 -2.046875 8.22265625 C-2.08651367 7.07547119 -2.12615234 5.92828613 -2.16699219 4.74633789 C-2 2 -2 2 0 0 Z " fill="#FFFFFF" transform="translate(113,325)"/>
<path d="M0 0 C2.0625 0.1875 2.0625 0.1875 4 1 C5.23971427 4.71914282 4.5565981 5.74337783 3.125 9.3125 C0.49882633 15.89629903 -0.15137988 21.81930497 -0.0625 28.875 C-0.05573242 29.90753906 -0.05573242 29.90753906 -0.04882812 30.9609375 C-0.03716336 32.64066335 -0.01923271 34.32034375 0 36 C0.86625 35.38125 1.7325 34.7625 2.625 34.125 C7.91210695 30.79608081 12.5612523 29.74742351 18.75 29.3125 C20.44382813 29.18294922 20.44382813 29.18294922 22.171875 29.05078125 C25 29 25 29 27 30 C27 31.65 27 33.3 27 35 C24.19455708 36.40272146 21.48853886 36.45580979 18.375 36.8125 C11.36832916 37.78166041 5.83191497 39.00626132 0.8125 44.3125 C0.214375 44.869375 -0.38375 45.42625 -1 46 C-5.3 45.7 -5.3 45.7 -7 44 C-9.65121429 30.1547698 -8.04965621 14.76099357 -2 2 C-1.34 1.34 -0.68 0.68 0 0 Z " fill="#FFFFFF" transform="translate(118,248)"/>
<path d="M0 0 C2.475 0.495 2.475 0.495 5 1 C3.98510736 9.86079347 -1.63351747 17.46126591 -8.03515625 23.5 C-16.32506903 29.82868093 -24.74545096 31.7981773 -35 31 C-39.91666667 29.08333333 -39.91666667 29.08333333 -42 27 C-42.04063832 25.33382885 -42.042721 23.66611905 -42 22 C-39.19660926 21.83980624 -37.36692794 21.82177786 -34.8125 23.0625 C-29.24854374 24.91715209 -23.20004757 23.78966543 -17.875 21.5 C-9.52363544 16.81919486 -4.4899806 8.14659359 0 0 Z " fill="#FFFFFF" transform="translate(128,563)"/>
<path d="M0 0 C12.12340616 4.04677943 21.80064102 11.24895283 27.984375 22.62109375 C29.41899385 26.30120298 29.57384257 26.85269104 28.421875 30.30859375 C26.12890625 30.12890625 26.12890625 30.12890625 23.421875 29.30859375 C21.68359375 27.05078125 21.68359375 27.05078125 20.109375 24.18359375 C14.82580356 15.40421103 8.46121352 9.9249953 -1.578125 7.30859375 C-4.50924283 6.99685359 -7.38093874 6.8108345 -10.328125 6.77734375 C-11.070625 6.62265625 -11.813125 6.46796875 -12.578125 6.30859375 C-13.890625 4.27734375 -13.890625 4.27734375 -14.578125 2.30859375 C-9.66527621 -1.26438719 -5.84758505 -1.56821599 0 0 Z " fill="#FFFFFF" transform="translate(102.578125,22.69140625)"/>
<path d="M0 0 C2.41776748 0.30346464 3.67759407 0.67670344 5.4140625 2.41796875 C9.6332653 8.58344897 12.10400216 14.3527655 11 22 C9.47051861 27.23492599 7.71064816 32.85956789 3 36 C0.25 36.25 0.25 36.25 -2 36 C-2.8125 34.375 -2.8125 34.375 -3 32 C-1.4045651 29.94272868 0.26526288 27.94125344 2 26 C3.45510486 21.63468541 3.64151779 17.55815273 3 13 C1.84960043 10.71089983 0.57609504 8.80153027 -1.00390625 6.7890625 C-2 5 -2 5 -1.71484375 2.8359375 C-1 1 -1 1 0 0 Z " fill="#FFFFFF" transform="translate(174,293)"/>
<path d="M0 0 C0.66 0.66 1.32 1.32 2 2 C1.625 4.625 1.625 4.625 1 7 C-1.64 7 -4.28 7 -7 7 C-7.89130413 9.6739124 -8.47731534 12.23723823 -9 15 C-9.99 15.33 -10.98 15.66 -12 16 C-13.5 14.9375 -13.5 14.9375 -15 13 C-15.6638938 8.60170357 -15.26435006 6.48464178 -13.125 2.5625 C-9.61132826 -1.23469569 -4.80684094 -0.88479904 0 0 Z " fill="#FFFFFF" transform="translate(81,580)"/>
<path d="M0 0 C1.65 0.33 3.3 0.66 5 1 C5 4.96 5 8.92 5 13 C6.65 13.33 8.3 13.66 10 14 C10 15.65 10 17.3 10 19 C5.77165483 19.41454364 3.66837056 19.46495343 0.125 17 C-2.48578017 13.3141927 -3.34221888 10.50149452 -3 6 C-1.5625 2.5 -1.5625 2.5 0 0 Z " fill="#FFFFFF" transform="translate(75,9)"/>
</svg>
