<svg xmlns="http://www.w3.org/2000/svg" viewBox="0 0 291.64 219.58"><g id="Layer_2" data-name="Layer 2"><g id="Layer_1-2" data-name="Layer 1" fill = "#79634d"><path d="M219.61,178.86c4.46,3.63,7.5,7.48,6.92,13.24a11.07,11.07,0,0,1-11.1,10.1c-6.17-.14-11.94-5.55-12.8-12-1.52-11.36,9.27-20.71,21-18.17a22.39,22.39,0,0,1,17.68,19.87,25,25,0,0,1-14.05,24.89c-9.74,4.48-19.14,3.3-28.31-1.55Q134.22,181,69.55,146.81,37.77,130,6,113.23c-1.71-.9-3.34-2-5.95-3.49,6.64-3.59,12.4-6.78,18.21-9.85Q107.83,52.52,197.48,5.17c14-7.39,25.37-6.91,35.77,1.8,7.47,6.26,10.21,17.94,6.43,27.43a22.13,22.13,0,0,1-20.91,13.51c-10.12-.43-17.61-9.18-16.08-18.81a13.86,13.86,0,0,1,12.12-11.54,11.06,11.06,0,0,1,11.05,7C228,30,226.14,34.72,220.3,39a5.16,5.16,0,0,0-.87,1.17c5.89.48,11.1-3.41,12.8-9.41,3.45-12.27-7.76-23.59-20.83-21-10.86,2.12-19,10.3-19.91,21.48-1.69,21.69,7.17,39.39,23,53.42a65.91,65.91,0,0,0,35.6,15.77c9.89,1.31,18.94-.56,26.07-8.2,10.06-10.81,7.15-27.86-5.52-32.47-9.93-3.62-20.46,3.69-19.45,13.81,1.48-2,2.62-4,4.24-5.56A11.12,11.12,0,0,1,273.89,78.3a13.65,13.65,0,0,1-10.81,10.48c-10.86,1.57-19.32-5.78-19.24-16.92.06-8.63,4.33-15.12,11.75-19a22.65,22.65,0,0,1,24.22,1.42C296.5,65.58,295.34,91,277.5,103c-4.29,2.89-9.35,4.65-14.49,7.14,2.45.83,4.61,1.49,6.73,2.27C290.37,120,298.46,145.31,285,160.8c-6.82,7.84-15.67,10.58-25.75,7.44-8.73-2.73-14-9-15.22-18-1-7.28,1.4-13.62,8-17.54,5.27-3.12,10.8-3.23,16.06.2,4.61,3,6.85,8.1,5.77,12.88s-3.93,7.67-8.65,8.61c-5.32,1.06-9.48-1.19-12.73-6.66-.31-.53-.65-1.05-1.36-2.21-.91,5.78,1.69,9.31,5.17,12.2,4.53,3.75,9.86,3.91,15.1,1.87,9.24-3.59,13.29-14.2,9.54-24.31-3.89-10.49-14.1-17.29-26.58-16.36-24.61,1.86-49.44,16-59.66,45.26-3.52,10.08-5.67,20.29-1.6,30.72,4.74,12.16,18.12,18.45,29.27,13.79,6.61-2.76,10.24-7.94,10.47-15.09a13.67,13.67,0,0,0-8-13.36C223.29,179.44,221.37,179.31,219.61,178.86Z"/></g></g></svg>