<svg xmlns="http://www.w3.org/2000/svg" viewBox="0 0 379.16 404.65"><defs><style>.cls-1{fill:#937752;}</style></defs><g id="Layer_2" data-name="Layer 2"><g id="Layer_1-2" data-name="Layer 1"><path class="cls-1" d="M379.16,177.54H354.68V328.18h-1.81q-101.4,0-202.8,0-61.27,0-122.56-.33a20.67,20.67,0,0,1-2.65-.36V177.21H0v-1.82q0-23.73,0-47.47a2.78,2.78,0,0,1,1.45-2.67Q21,112.2,40.53,99.06q13.3-8.93,26.65-17.82Q80.91,72,94.62,62.81L121.11,45l26.2-17.61L175,8.82l12-8.06a4.61,4.61,0,0,1,5.1,0q13,8.7,25.95,17.4,18.51,12.41,37,24.85c6.37,4.28,12.7,8.62,19.07,12.9q19.11,12.85,38.23,25.66,18.5,12.42,37,24.85c6.41,4.32,12.8,8.68,19.21,13,3,2,6,4,9,6.07a10.61,10.61,0,0,1,1.58,1.69ZM66.1,276.43H313.69c0-.43.06-.76.06-1.08q0-62.66,0-125.3a2.14,2.14,0,0,0-1.17-2q-15.44-10.32-30.9-20.62L219.13,85.59c-9.57-6.4-19.16-12.76-28.71-19.18a1.78,1.78,0,0,0-2.34,0c-3.6,2.51-7.23,5-10.87,7.41Q164.45,82.41,151.67,91c-8.15,5.47-16.28,11-24.43,16.43s-16.5,11-24.74,16.53q-17.41,11.67-34.84,23.34a3.08,3.08,0,0,0-1.59,2.94q.06,62.15,0,124.3Z"/><path class="cls-1" d="M190.27,403.76c-3.64,1-5.82-.08-7.49-3.44s-3.8-7-7-9.55a6.33,6.33,0,0,0-3-1.45,63.28,63.28,0,0,0-6.63-.07v14.63h-4.29v-33c.44,0,.92-.09,1.4-.09,4.47,0,9-.16,13.41.06a18,18,0,0,1,7.19,1.44,7.87,7.87,0,0,1,4,6.53c.22,2.45-.06,4.82-1.73,6.69a12.26,12.26,0,0,1-3.54,2.58,16.57,16.57,0,0,1-3.49,1C184.41,392.78,186.84,398.66,190.27,403.76Zm-24.12-18.17c3.85,0,7.53.06,11.21,0a7,7,0,0,0,3.45-.84,5.52,5.52,0,0,0,2.71-5.64,4.87,4.87,0,0,0-4.42-4.13c-4.27-.36-8.6-.11-12.95-.11Z"/><path class="cls-1" d="M278.15,370.87h3.91V404a34.65,34.65,0,0,1-3.82-.05,2.37,2.37,0,0,1-1.28-1q-7.79-11.61-15.51-23.25l-1-1.51v25.74h-4V370.83c1.21,0,2.43-.07,3.62,0,.37,0,.79.48,1,.84q6.17,9,12.3,18.09c1.49,2.21,3,4.41,4.73,6.95Z"/><path class="cls-1" d="M42.65,404.64c-4.5.18-8.33-1.23-11.13-4.62a19.53,19.53,0,0,1-.6-24.41,12.72,12.72,0,0,1,6.29-4.19,17.94,17.94,0,0,1,6.47-.93,14.6,14.6,0,0,1,10.51,4.78,16.22,16.22,0,0,1,4.21,10.78,22.14,22.14,0,0,1-1.81,10.29c-1.76,3.72-4.75,5.86-8.32,7.26A29.67,29.67,0,0,1,42.65,404.64Zm-11.1-17.17v1.35c0,8.11,6.14,13.64,14.77,11.56a3.08,3.08,0,0,0,1.08-.3c2.56-1.9,5.27-3.69,5.88-7.2.18-1,.55-2,.64-3,.41-4.69.16-9.26-3.72-12.64-5.55-4.84-12.46-3.88-16.64,1.77C31.67,381.53,31.45,384.58,31.55,387.47Z"/><path class="cls-1" d="M139.9,404.26c-4.55.73-8.13-1.22-11.12-4.27-2.65-2.7-3.7-6.28-4.25-10a18.58,18.58,0,0,1,1.33-10.42,14.21,14.21,0,0,1,8.85-8.21,16.15,16.15,0,0,1,9.86-.24A14.32,14.32,0,0,1,155,381.72a20.47,20.47,0,0,1-.69,13.66,13.16,13.16,0,0,1-6,7C145.68,403.8,143,404.79,139.9,404.26Zm-11.52-16.87.47.13a19.1,19.1,0,0,0,0,2.51,13.1,13.1,0,0,0,3.73,8c2.57,2.5,5.54,2.77,8.83,2.76s5.45-1.8,7.33-4c2.39-2.81,2.63-6.32,2.61-9.83-.06-6.55-3.11-11-9.78-12.62-4-1-10.1,2.23-11.26,5.72C129.51,382.4,129,384.92,128.38,387.39Z"/><path class="cls-1" d="M95.12,370.83c4.87,0,9.62-.18,14.35.07,2.63.13,5.29.56,7.49,2.5a10.86,10.86,0,0,1,3.15,8.27,14.63,14.63,0,0,1-2.37,5.65c-1.08,1.74-3,2.29-4.78,2.54-2.94.42-5.92.54-8.89.71-1.5.09-3,0-4.7,0v13.32H95.12Zm4.31,3.68V386.6c3.29,0,6.47-.07,9.64,0a8,8,0,0,0,4.31-1.3c2.8-1.58,2.16-4.17,2-6.44a3.57,3.57,0,0,0-3.25-3.38C107.94,375.1,103.76,374.84,99.43,374.51Z"/><path class="cls-1" d="M64.24,370.83c4.88,0,9.63-.14,14.37.05,2.83.12,5.74.65,7.87,2.79a8.45,8.45,0,0,1,2.82,5.58c.21,3.59-.71,6.68-3.39,9.1a5.63,5.63,0,0,1-2.45,1.09,35.75,35.75,0,0,1-5.93,1.1c-2.94.19-5.9,0-9,0v13.33H64.24Zm4.29,15.77c3.19,0,6.2-.09,9.21,0a8.9,8.9,0,0,0,4.87-1.21,4.55,4.55,0,0,0,2.32-4.73c-.14-1.91-.45-3.85-2.42-4.68a14.51,14.51,0,0,0-4.71-1.14c-3.09-.18-6.19-.05-9.27-.05Z"/><path class="cls-1" d="M223.16,370.88h4.33v1.75c0,6.65,0,13.31,0,20,0,3.31,1.27,6,4.25,7.34a11.59,11.59,0,0,0,5.16.7c3.09-.12,5.9-1.06,7.05-4.37a11.61,11.61,0,0,0,.66-3.69c.06-7.15,0-14.31,0-21.6h4.23c0,.39.1.82.1,1.25,0,6.65.17,13.31-.07,20-.13,3.4-.36,7-3.42,9.45a10.71,10.71,0,0,1-6.72,2.69,58.2,58.2,0,0,1-7.47-.34c-4.11-.53-6.38-3.41-7.39-7.44-1.49-6-.52-12.08-.72-18.13C223.09,376,223.16,373.5,223.16,370.88Z"/><path class="cls-1" d="M77.24,361.61l4.92,2.49L81,366.59a17.94,17.94,0,0,1-3.82-1.91c-1.58-1.31-3-1.29-4.81-.6a13.31,13.31,0,0,1-11.43-1c-4.12-2.25-5.64-6.05-6.17-10.44a17.46,17.46,0,0,1,1.73-10.32,12.25,12.25,0,0,1,8.71-6.36c4.7-1,8.72.36,12.18,3.42a13.18,13.18,0,0,1,4.1,8.6c.47,4.14,0,8.26-2.61,11.82C78.39,360.38,77.83,360.93,77.24,361.61Zm-2.44-2c.76-1.48,1.73-2.71,2-4.08a37.56,37.56,0,0,0,.69-7,9.92,9.92,0,0,0-2.64-6.71c-3.3-3.82-12-4-14.74,1.47a15.65,15.65,0,0,0-.3,13.92c1.57,3.67,8,6,12,3.67l-3.62-1.38a4.54,4.54,0,0,0,.32-.86c.38-1.77,1.49-1.82,2.8-1.12C72.41,358.07,73.44,358.78,74.8,359.61Z"/><path class="cls-1" d="M318.5,358.56V336H322v28.39a22.84,22.84,0,0,1-3.52-.05c-.5-.08-1-.72-1.34-1.22q-6.4-9.75-12.78-19.53c-.24-.36-.51-.7-1-1.29v22h-3.66V335.93a33,33,0,0,1,3.3,0c.37,0,.79.49,1,.85q6.69,10.08,13.32,20.17C317.65,357.38,317.94,357.76,318.5,358.56Z"/><path class="cls-1" d="M353,344.11a7.78,7.78,0,0,0-1.34.32c-1.57.72-2.25.36-2.81-1.42-.86-2.71-3.37-3.71-5.94-4.05a10,10,0,0,0-11.51,8.72c-.64,4.36,0,8.16,3,11.5a7.38,7.38,0,0,0,5.15,2.19c3.38.31,6.77.19,9.63-2.07a1.86,1.86,0,0,0,.73-1.09c.08-1.55,0-3.11,0-4.85h-8.31v-3.24h12c0,3.35,0,6.73,0,10.12,0,.22-.35.51-.61.64-2.37,1.19-4.65,2.77-7.17,3.43-4.48,1.17-9.06.83-12.95-2A12.67,12.67,0,0,1,329,357.5a16.71,16.71,0,0,1,.53-15.24,11.73,11.73,0,0,1,9.27-6.32,14.67,14.67,0,0,1,10.65,2.24C351.59,339.61,352.45,341.68,353,344.11Z"/><path class="cls-1" d="M215.49,365c-5.54.41-11.6-4.37-12.87-9.51s-.87-10.07,1.95-14.43c2-3.07,5.3-4.58,9-5.22s7,.54,10.08,2.46a10.82,10.82,0,0,1,4.7,6.91,18.13,18.13,0,0,1,0,9.91c-1.27,4.16-3.67,7.44-8,8.87A40.72,40.72,0,0,1,215.49,365Zm.83-3.27c2.86-.32,6.16-1.54,7.66-5.42a30.93,30.93,0,0,0,.93-4.46c1.34-6.05-1.85-11-7.85-12.72-3.05-.87-8.27,1.08-9.71,4.48a17.75,17.75,0,0,0-1.4,9.24C206.54,358,210.33,361.76,216.32,361.77Z"/><path class="cls-1" d="M29.6,364.29V336.06H49.9v3.14H33.33V348H48.86v3.31H33.36V361H50.57v3.26Z"/><path class="cls-1" d="M174.64,336h3.8v11.6H192.9V336.06h3.62v28.23H193V351.13H178.56v13.18h-3.92Z"/><path class="cls-1" d="M282.78,344.23h-2.89c-1.1-1.49-1.81-3.15-3.07-4-2.84-2-8.05-1.89-10.32,1.2-1.71,2.34-.37,4.62,2.45,5.48s6,1.25,8.88,2.22,5.1,2.83,5.59,5.8-.15,5.93-3.1,8c-3.3,2.29-6.88,2-10.49,1.71a11.75,11.75,0,0,1-3.47-.89c-3-1.22-4.2-3.83-4.93-6.75-.12-.47-.18-1-.29-1.56.59,0,1.15,0,1.7,0,1.29-.11,2,.12,2.34,1.71.61,2.6,2.87,3.93,5.33,4.24a17.93,17.93,0,0,0,6.23-.42,4.06,4.06,0,0,0,3.43-4.22c-.06-1.81-2.2-3.74-4.49-4.35-2.94-.77-5.94-1.41-8.81-2.42-2.25-.79-4.49-3-4.47-5.74,0-3.86,1.53-6.09,4.44-7.32a13.85,13.85,0,0,1,10.7-.17C280.39,337.78,283,340.21,282.78,344.23Z"/><path class="cls-1" d="M86.61,336h4v1.76c0,5.42,0,10.84,0,16.26a14.92,14.92,0,0,0,.73,4.18,4.66,4.66,0,0,0,4.76,3.24,23.92,23.92,0,0,0,4.95-.27c2.94-.7,3.76-2.95,3.92-6.49.26-5.57.07-11.17.07-16.76V336h4v3.64c0,3.86.08,7.72,0,11.57a43,43,0,0,1-.68,6.89,8.44,8.44,0,0,1-8.33,6.64,42.28,42.28,0,0,1-5.52-.11c-3.92-.52-6.24-3-7.18-6.71a22.06,22.06,0,0,1-.67-5C86.55,347.31,86.61,341.73,86.61,336Z"/><path class="cls-1" d="M138.42,364.34c-4.21.27-4.21.26-5.49-3.52-.19-.57-.46-1.12-.67-1.68-1.28-3.45-1.28-3.45-4.92-3.45-2.34,0-4.69,0-7,0a1.35,1.35,0,0,0-1.52,1.12c-.68,2.08-1.48,4.12-2.1,6.21-.33,1.08-.81,1.6-2,1.44a18.53,18.53,0,0,0-2.49,0c2.11-5.64,4.19-11.15,6.26-16.68q1.86-5,3.7-10c.39-1.06.69-2,2.21-1.85s2.76-.28,3.52,1.74c3.11,8.23,6.45,16.38,9.7,24.56C137.87,362.9,138.14,363.61,138.42,364.34Zm-18.2-11.74h9.45c-1.57-4.37-3.1-8.64-4.71-13.17Z"/><path class="cls-1" d="M252.35,336H256v1.81c0,6,0,12,0,18a8.6,8.6,0,0,1-4.83,8,8.85,8.85,0,0,1-3.59,1,29.89,29.89,0,0,1-6.13-.26c-5-.81-6.85-4.25-7.16-7.82-.35-3.92-.31-7.89-.38-11.83-.06-2.89,0-5.79,0-8.77h3.58c0,.53.07,1.07.07,1.61,0,4,0,8.05,0,12.07,0,2.33.12,4.67.35,7,.2,2,2.65,5,5.28,4.76,1.71-.14,3.51.14,5.13-.28,2.94-.75,3.73-2.59,3.94-6.47.31-5.57.08-11.17.08-16.76Z"/><path class="cls-1" d="M344.25,403.93h-4.33a76.16,76.16,0,0,1,.05-8c.45-4.15-.84-7.55-3.3-10.85-3.17-4.25-6-8.79-8.91-13.2a8.18,8.18,0,0,1-.5-1.05c1.6,0,3-.07,4.46,0a1.85,1.85,0,0,1,1.19.84c3.06,4.8,6.07,9.63,9.1,14.44a1.11,1.11,0,0,0,.29.27c3.08-4.77,6.2-9.51,9.21-14.32a2.39,2.39,0,0,1,2.56-1.29c1,.09,2,0,3.34,0l-3.72,5.46c-2.87,4.2-5.77,8.38-8.57,12.64a5.36,5.36,0,0,0-.83,2.73C344.2,395.72,344.25,399.78,344.25,403.93Z"/><path class="cls-1" d="M203.44,374.81H192.39V371h25.94v3.8h-10.6v29.16h-4.29Z"/><path class="cls-1" d="M300,374.87V371h26v3.79H315.11v29.17h-4.3v-29Z"/><path class="cls-1" d="M141.34,364.28V336.06h3.54V361h14.05v3.27Z"/><path class="cls-1" d="M294.47,404h-4.08V370.92h4.08Z"/><path class="cls-1" d="M289.38,336h3.74v28.35h-3.74Z"/><path class="cls-1" d="M124.56,252.89V199.16H255.24v53.73Z"/><path class="cls-1" d="M124.26,190.48V136.7H254.58c.17,17.88.34,35.77.51,53.78Z"/></g></g></svg>