<?xml version="1.0" encoding="utf-8"?>
<!-- Svg Vector Icons : http://www.onlinewebfonts.com/icon -->
<!DOCTYPE svg PUBLIC "-//W3C//DTD SVG 1.1//EN" "http://www.w3.org/Graphics/SVG/1.1/DTD/svg11.dtd">
<svg version="1.1" xmlns="http://www.w3.org/2000/svg" xmlns:xlink="http://www.w3.org/1999/xlink" x="0px" y="0px" viewBox="0 0 256 256" enable-background="new 0 0 256 256" xml:space="preserve">
<metadata> Svg Vector Icons : http://www.onlinewebfonts.com/icon </metadata>
<g><g><g><path fill="#a79270" d="M71.4,221.8c-4.7-1.8-8.4-4.7-11.1-8.7c-2.7-3.9-4-8-4-12.3c0-2,0.3-3.8,1-5.6c0.6-1.8,1.6-3.3,2.8-4.6c1.2-1.3,2.9-2.4,5-3.2c2.1-0.8,4.4-1.2,6.9-1.2c-1.2,2.7-1.8,5.7-1.8,8.9c0,3.6,0.9,6.7,2.7,9.2c1.8,2.5,4.4,3.7,8,3.7c2.2,0,4.5-0.5,7.2-1.4c7.4-2.7,11.3-9.5,11.7-20.3H85.1c-2.6,0-4.8-0.9-6.7-2.8s-2.8-4.1-2.8-6.7v-9.5c0-1.7,0.4-3.3,1.3-4.8c0.9-1.5,2-2.6,3.5-3.5c1.5-0.9,3.1-1.3,4.8-1.3h7.6c-3.6-5.7-8.2-10.5-13.9-14.2s-11.5-5.6-17.3-5.6c-1.4,0-2.8,0.1-4.1,0.4c-2.4,0.5-4.5,1.3-6.4,2.6s-3.4,2.8-4.4,4.5c-1.1,1.7-2,3.6-2.8,5.6c-0.8,2-1.3,4-1.6,5.9c-0.3,1.9-0.5,3.6-0.7,5.2c-0.2,1.6-0.3,2.8-0.3,3.9l0.1,1.4c-0.5-0.1-1.1-0.3-1.8-0.5c-0.8-0.2-2.2-0.8-4.4-1.6c-2.2-0.9-4.2-1.8-6.3-3c-2-1.1-4.2-2.6-6.6-4.6c-2.4-1.9-4.5-4-6.3-6.4c-1.8-2.3-3.2-5.1-4.4-8.4c-1.2-3.3-1.8-6.9-1.8-10.7c0-3.6,0.6-7.4,1.6-11.3c1.7-6.2,4.4-11.5,8.2-15.8c3.8-4.3,8.1-7.4,13-9.3c4.8-1.9,10.1-2.9,15.7-2.9c5.9,0,11.8,1.1,17.5,3.2c9.8,3.7,18.2,9.8,25.2,18.2c7,8.4,12.3,18.4,15.9,30.1c1.3,4.3,2.4,8.7,3.1,13.3h12.6c-0.6-6.5-1.7-13.1-3.3-19.7c-1.7-6.7-3.5-12.6-5.6-17.7c-2.1-5.2-4.2-10.5-6.5-16c-2.3-5.5-4.4-10.5-6.3-14.9c-1.9-4.4-3.4-9-4.7-13.9s-1.9-9.3-1.9-13.5c0-3.9,0.6-7.9,1.9-12.1c1.2-4.2,2.8-8.1,4.8-11.7s4.1-7.1,6.5-10.6c2.4-3.5,4.8-6.5,7.2-9.2c2.4-2.7,4.5-5,6.5-7.1s3.5-3.6,4.8-4.7L128,5c0.5,0.4,1.1,1,1.9,1.7c0.8,0.8,2.4,2.3,4.7,4.7c2.3,2.4,4.5,4.8,6.6,7.3c2.1,2.5,4.4,5.5,7,9.2c2.6,3.6,4.8,7.2,6.6,10.7c1.8,3.5,3.4,7.3,4.7,11.5c1.3,4.2,1.9,8.2,1.9,12c0,3.1-0.4,6.3-1.1,9.6c-0.7,3.3-1.7,6.4-2.9,9.4c-1.2,3-2.6,6.2-4.2,9.7s-3.2,6.9-4.9,10.3c-1.7,3.4-3.3,7.2-5,11.5c-1.7,4.3-3.2,8.6-4.6,12.9c-1.4,4.4-2.6,9.3-3.6,15c-1,5.6-1.7,11.4-2.1,17.3h12.7c0.7-4.6,1.7-9,3.1-13.3c2.4-7.7,5.5-14.7,9.3-20.9c3.8-6.3,8.4-11.8,13.8-16.5c5.4-4.7,11.4-8.3,18-10.8c5.8-2.2,11.6-3.2,17.5-3.2c5.6,0,10.9,1,15.7,2.9c4.8,1.9,9.2,5,13,9.3c3.8,4.3,6.6,9.6,8.2,15.8c1.1,3.9,1.6,7.7,1.6,11.3c0,3.8-0.6,7.4-1.7,10.7c-1.2,3.3-2.6,6.2-4.5,8.4c-1.8,2.3-3.9,4.4-6.2,6.3s-4.5,3.4-6.7,4.6c-2.2,1.2-4.3,2.2-6.1,3c-1.8,0.8-3.4,1.4-4.6,1.7l-1.7,0.5c-0.1-0.1-0.1-0.6,0.1-1.5c0.1-0.9,0-2.2-0.2-3.8c-0.2-1.6-0.5-3.4-0.7-5.2c-0.2-1.9-0.8-3.8-1.6-5.9s-1.8-3.9-2.8-5.6c-1.1-1.7-2.5-3.2-4.4-4.5s-4-2.2-6.4-2.6c-1.3-0.3-2.7-0.4-4.1-0.4c-5.8,0-11.6,1.9-17.3,5.6c-5.7,3.7-10.3,8.5-13.9,14.2h7.7c2.6,0,4.8,0.9,6.7,2.8s2.8,4.1,2.8,6.7v9.5c0,1.7-0.4,3.3-1.3,4.8c-0.9,1.5-2,2.6-3.5,3.5c-1.5,0.9-3.1,1.3-4.8,1.3h-14.6c0.4,10.8,4.3,17.6,11.7,20.3c2.6,1,5,1.4,7.2,1.4c3.6,0,6.2-1.2,8-3.7c1.8-2.5,2.7-5.5,2.7-9.2c0-3.2-0.6-6.1-1.8-8.9c5.1,0,9,1.4,11.6,4.1c2.7,2.8,4,6.3,4,10.4c0,4.3-1.3,8.4-4,12.3c-2.7,3.9-6.4,6.8-11.1,8.7c-3.8,1.5-7.5,2.3-11.2,2.3c-7.3,0-13.6-2.8-18.8-8.4s-8.5-13.2-9.7-22.7c-0.1-2.5-0.3-4.8-0.4-6.7h-33.2c-0.1,1.9-0.3,4.1-0.4,6.7c-0.8,6.3-2.6,11.8-5.2,16.5c-2.7,4.7-6,8.4-10,10.9s-8.4,3.8-13.3,3.8C78.9,224.1,75.2,223.4,71.4,221.8z M124.7,249.7l-20.5-20.5l19.1-33.4h9.5l19.1,33.4l-20.5,20.5c-0.9,0.9-2,1.3-3.3,1.3C126.7,251,125.6,250.6,124.7,249.7z"/></g></g></g>
</svg>