<?xml version="1.0" encoding="utf-8"?>
<!-- Svg Vector Icons : http://www.onlinewebfonts.com/icon -->
<!DOCTYPE svg PUBLIC "-//W3C//DTD SVG 1.1//EN" "http://www.w3.org/Graphics/SVG/1.1/DTD/svg11.dtd">
<svg version="1.1" xmlns="http://www.w3.org/2000/svg" xmlns:xlink="http://www.w3.org/1999/xlink" x="0px" y="0px" viewBox="0 0 256 256" enable-background="new 0 0 256 256" xml:space="preserve">
<metadata> Svg Vector Icons : http://www.onlinewebfonts.com/icon </metadata>
<g><g><g><path fill="#85704e" d="M239.9,132.7c-7.1-14.8-19.5-25.9-35-31.3c-19.1-6.7-39.6-5.6-57.9,3.2c-2.8,1.4-5.5,3-8.1,4.7l6.4-9.4c0.7-1,0.7-2.3,0.2-3.4c-0.6-1.1-1.7-1.7-2.9-1.7h-4.8c0.4-1.1,0.7-2.2,0.7-3.3c0-0.7-0.3-1.4-0.4-2.1c5.8-0.8,13.2-2.9,18.6-8.4c9.9-10,8.5-26.8,8.5-27.6c-0.1-1.6-1.4-2.9-3-3c0,0-17.4-1.3-27.4,8.8c-1.1,1.1-2,2.3-2.8,3.5c1.9-12.2,11.8-21.6,24.1-22.8c1.1,1.4,2.7,2.4,4.7,2.4c3.3,0,6-2.7,6-6c0-3.3-2.7-6-6-6c-2.3,0-4.1,1.3-5.2,3.1c-9.9,0.9-18.6,6.1-24.2,13.8V27.8c1.6-1.1,2.7-2.8,2.7-4.9c0-3.3-2.7-6-6-6s-6,2.7-6,6c0,2.1,1.1,3.8,2.7,4.9v19.6c-5.5-7.7-14.2-12.8-24.2-13.8c-1-1.9-2.9-3.1-5.2-3.1c-3.3,0-6,2.7-6,6s2.7,6,6,6c1.9,0,3.6-1,4.7-2.4c12.4,1.2,22.3,10.7,24.1,22.8c-0.8-1.2-1.7-2.5-2.8-3.5c-10-10.2-27.5-8.9-27.4-8.9c-1.6,0.1-2.9,1.4-3,2.9C90.9,54.2,89.5,71,99.4,81c5.4,5.5,12.8,7.6,18.6,8.4c-0.1,0.7-0.4,1.3-0.4,2.1c0,1.2,0.3,2.3,0.7,3.3h-4.8c-1.2,0-2.3,0.7-2.9,1.7c-0.6,1.1-0.5,2.4,0.2,3.4l6.4,9.4c-2.6-1.7-5.3-3.3-8.1-4.7c-18.2-8.8-38.8-9.9-57.9-3.2c-15.5,5.4-27.9,16.5-35,31.3c-7.2,14.7-8.1,31.4-2.7,46.8c9.1,25.8,37.5,39.5,63.3,30.5c6.2-2.2,11.4-5.8,15.6-10.2c-0.1,1.2-0.4,2.3-0.4,3.5c0,19.8,16.1,35.9,35.9,35.9c19.8,0,35.9-16.2,35.9-35.9c0-1.2-0.2-2.3-0.4-3.5c4.3,4.5,9.4,8.1,15.6,10.3c5.4,1.9,10.9,2.8,16.4,2.8c20.5,0,39.8-12.8,47-33.2C248,164.1,247,147.4,239.9,132.7z M124.7,145.7h-8.5c2.2-5.2,5.2-9.9,8.5-14.3V145.7z M124.7,175.1v56.4c-5.1-3.3-9.7-13.9-9.7-28.2C115.1,189,119.7,178.4,124.7,175.1z M131.3,231.4V175c5.1,3.3,9.7,13.9,9.7,28.2C141,217.5,136.3,228,131.3,231.4z M131.3,131.3c3.3,4.4,6.3,9.1,8.5,14.3h-8.5V131.3z M139.3,63.9c5.6-5.7,14.6-6.8,19.3-6.9c-0.1,4.6-1,13.7-6.6,19.4c-5.1,5.2-12.9,6.5-17.9,6.8c-0.5-0.3-0.9-0.7-1.4-0.9C132.9,77.5,134,69.3,139.3,63.9z M97.4,57c4.7,0.2,13.7,1.2,19.3,7c5.3,5.3,6.4,13.5,6.6,18.4c-0.5,0.2-0.9,0.6-1.4,0.9c-5-0.3-12.8-1.6-17.9-6.8C98.5,70.8,97.5,61.7,97.4,57z M101.6,158.5c-6-17.1-24.9-26.2-42-20.2c-6.8,2.4-12.3,7.3-15.4,13.8c-3.1,6.5-3.6,13.8-1.2,20.6c2,5.6,6,10.1,11.4,12.7c5.4,2.6,11.4,2.9,17,0.9c9.6-3.3,14.7-13.9,11.3-23.5c-0.6-1.7-2.5-2.6-4.2-2c-1.7,0.6-2.6,2.5-2,4.2c2.2,6.2-1.1,13.1-7.3,15.2c-4,1.4-8.2,1.2-12-0.7c-3.8-1.8-6.6-5-8-9c-1.8-5.2-1.5-10.7,0.9-15.7c2.4-4.9,6.5-8.6,11.7-10.4c13.8-4.8,28.9,2.4,33.7,16.2c6.2,17.6-3.2,37-20.8,43.2c-22.4,7.9-47.1-4-55-26.4c-4.8-13.8-4-28.7,2.3-41.9c6.3-13.2,17.4-23.1,31.2-27.9c17.4-6.1,36.2-5.1,52.9,2.9c6.4,3.1,12.2,7.1,17.3,11.8c-6.6,7.3-11.7,16-15.1,25.6c-0.4,1-0.2,2.1,0.4,3c0.6,0.8,1.6,1.4,2.7,1.4h10.2c0,0-0.1,0.1-0.1,0.1L110.3,169c-0.7,1-0.7,2.2-0.2,3.3c-2.4,1.4-4.7,3-6.7,4.9C104.2,171.1,103.8,164.7,101.6,158.5z M98.6,203.2c0-11.3,6.5-21,15.8-25.9c-3.7,6.5-5.9,15.6-5.9,25.9c0,10.3,2.3,19.4,5.9,25.9C105.1,224.2,98.6,214.5,98.6,203.2z M141.6,229.1c3.6-6.5,5.9-15.6,5.9-25.9c0-10.3-2.2-19.4-5.9-25.9c9.4,4.9,15.8,14.6,15.8,25.9C157.4,214.5,151,224.2,141.6,229.1z M236.4,177.4c-7.9,22.4-32.6,34.3-55,26.5c-17.6-6.2-26.9-25.6-20.8-43.2c4.8-13.8,19.9-21,33.7-16.2c5.2,1.8,9.3,5.5,11.7,10.4c2.4,4.9,2.7,10.5,0.9,15.7c-1.4,4-4.2,7.2-8,9c-3.8,1.8-8,2.1-12,0.7c-6.2-2.2-9.5-9-7.3-15.2c0.6-1.7-0.3-3.6-2-4.2c-1.7-0.6-3.6,0.3-4.2,2c-3.3,9.6,1.7,20.2,11.3,23.6c5.6,2,11.7,1.6,17-0.9c5.4-2.6,9.4-7.1,11.4-12.7c2.4-6.8,2-14.1-1.2-20.6c-3.1-6.5-8.6-11.4-15.4-13.8c-17.1-6-36,3.1-42,20.2c-2.2,6.2-2.6,12.6-1.7,18.8c-2.2-2.1-4.7-3.8-7.4-5.3c0.1-0.3,0.2-0.7,0.2-1.1c0-1-0.5-1.9-1.2-2.5l-10.9-16.1c0,0-0.1-0.1-0.1-0.1h11.2c1.1,0,2-0.5,2.7-1.4c0.6-0.8,0.8-2,0.4-3c-3.3-9.6-8.5-18.2-15.1-25.6c5.1-4.7,10.9-8.7,17.3-11.8c16.7-8,35.5-9.1,52.9-2.9c13.8,4.8,24.9,14.8,31.2,27.9C240.4,148.7,241.2,163.6,236.4,177.4z"/></g><g></g><g></g><g></g><g></g><g></g><g></g><g></g><g></g><g></g><g></g><g></g><g></g><g></g><g></g><g></g></g></g>
</svg>