<?xml version="1.0" encoding="utf-8"?>
<!-- Svg Vector Icons : http://www.onlinewebfonts.com/icon -->
<!DOCTYPE svg PUBLIC "-//W3C//DTD SVG 1.1//EN" "http://www.w3.org/Graphics/SVG/1.1/DTD/svg11.dtd">
<svg version="1.1" xmlns="http://www.w3.org/2000/svg" xmlns:xlink="http://www.w3.org/1999/xlink" x="0px" y="0px" viewBox="0 0 256 256" enable-background="new 0 0 256 256" xml:space="preserve">
<metadata> Svg Vector Icons : http://www.onlinewebfonts.com/icon </metadata>
<g><g><g><path fill="#000000" d="M125.9,9.4c-5.9,1-11.5,5.1-13.7,10c-0.9,2.1-1.1,3.2-1,8.1c0,6.4,0.8,10.6,3.4,18.1c4.2,12.3,11.2,24,14.4,24c3.5,0,11.7-13.7,16.2-27.5c2.2-6.5,2.9-10.5,2.9-15.7c0-4.6-0.5-6.6-2.6-9.6C141.7,11.4,133.2,8.1,125.9,9.4z"/><path fill="#000000" d="M74.5,22.6c-5.9,1.9-10.6,6-13,11.2c-1.1,2.3-1.3,3.5-1.3,6.7c0,3.5,0.2,4.3,1.7,7.1c3.7,7.1,9.8,13.7,18.9,20.5c5.9,4.4,10.6,7.1,14.6,8.4c3.1,1,3.4,1,4.5,0.3c1.9-1.3,2.5-5,2.1-14.3c-0.7-17.3-4.6-30.9-10.5-36.6C87.4,22.1,80.3,20.6,74.5,22.6z"/><path fill="#000000" d="M175.1,23.8c-5.7,1.3-8.6,3.9-12.3,11.1c-5,10-8.1,28.6-6.4,38.9c0.9,5.5,2.9,6,10,2.4c13.8-7.1,26.2-17.8,30.8-26.8c1.4-2.6,1.6-3.5,1.6-6.9c0-3.3-0.2-4.4-1.3-6.8c-1.9-4-4.1-6.6-7.4-8.7C185.2,23.8,180,22.7,175.1,23.8z"/><path fill="#000000" d="M35.4,60c-5.8,2.3-11.1,9.2-12.4,16.2c-1.4,8,1.9,14.4,9.7,18.5c11.3,6,36.4,9,43.8,5.2c1.2-0.6,1.4-1.1,1.4-2.7c0-4.1-9-18.1-17.5-27.3c-3.3-3.5-8.5-7.5-12.1-9.3c-2.9-1.4-4-1.7-6.9-1.6C39.3,59,37.1,59.3,35.4,60z"/><path fill="#000000" d="M209,61.8c-4.7,2.3-8.7,5.4-13.9,10.7c-9.5,9.8-17.5,22.8-16.4,26.9c0.6,2.5,2.6,2.9,12.6,2.9c22.8,0,38-5.6,41.7-15.2c0.9-2.5,1-3.6,0.9-7.3c-0.2-3.7-0.5-5-1.8-7.7c-2.1-4.3-5.2-7.7-9-9.7c-2.6-1.4-3.7-1.7-7-1.9C212.4,60.3,211.8,60.5,209,61.8z"/><path fill="#000000" d="M123.1,78.8c-0.7,0.1-2.5,0.4-4.2,0.7c-22.7,3.9-40,24.8-40,48.5c0,22.7,15,42.1,37.2,47.9c4,1.1,5.8,1.3,11.8,1.3c6.1,0,7.8-0.2,11.8-1.3c22.2-5.9,37.2-25.2,37.2-47.9c0-23.2-16.3-43.5-38.9-48.3C134.6,79,125.4,78.4,123.1,78.8z"/><path fill="#000000" d="M19.7,110.9c-13,6.6-13,28.2,0.1,34.4c2.5,1.2,3.5,1.4,7.1,1.4c2.3,0,5.7-0.2,7.5-0.5c11.5-1.7,32.1-11.7,35-16.9c0.8-1.5,0.8-1.7,0-2.9c-1.4-2.2-5.1-4.6-13.3-8.6c-12-5.9-20.4-8.3-29.2-8.3C23.2,109.4,22.4,109.6,19.7,110.9z"/><path fill="#000000" d="M221.4,109.9c-11.8,1.7-32.9,12.1-35.1,17.2c-0.5,1.2-0.5,1.7,0.2,2.7c1.4,2.1,5.1,4.5,13.3,8.6c12.2,6,20.2,8.3,28.8,8.3c4,0,4.9-0.2,7.5-1.4c3.4-1.7,6.2-4.6,7.9-8.2c4.6-10,0.9-22.1-7.9-26.3c-2.6-1.2-3.4-1.4-7.6-1.3C225.9,109.5,222.7,109.7,221.4,109.9z"/><path fill="#000000" d="M55.5,154c-13.9,1.4-25.4,5.4-29.7,10.4c-2.8,3.3-3.9,6.7-3.6,11.9c0.2,5.3,1.9,9.3,5.4,13.3c3.3,3.7,7.5,5.7,12.2,6c3.4,0.2,4,0.1,7.1-1.3c1.8-0.8,4.8-2.6,6.5-3.9c7.1-5.3,16.8-16.8,20.9-24.8c5.2-10.1,4.3-11.5-7.4-11.8C63.2,153.7,58,153.8,55.5,154z"/><path fill="#000000" d="M183.5,155c-1.4,0.3-3.2,0.8-4,1.2c-2.2,1.1-2,3.6,0.5,8.4c7.4,13.9,18.6,26.6,27.7,30.9c6.5,3.1,12.9,2,18.6-3.3c8.5-7.9,9.3-21.1,1.7-27.7c-2.5-2.1-8.5-5.1-13.4-6.6C206.3,155.5,189.9,153.9,183.5,155z"/><path fill="#000000" d="M90.4,179.4c-7.3,3.6-17.4,10.6-23,16.1c-11.1,10.8-13.2,19.9-6.7,28.7c3.9,5.3,10.2,8.5,17,8.4c3.2,0,4.2-0.2,7-1.6c3.9-1.9,5.5-3.8,8.6-10.1c4.3-8.6,6.5-19.4,6.6-31.4c0-6.9,0-8.1-0.9-9.8C97.4,177,95.6,176.9,90.4,179.4z"/><path fill="#000000" d="M155.7,179.7c-1.6,1.6-2,5.7-1.6,14.8c0.6,12.6,2.6,22,6.3,29.5c2.4,4.8,4.6,7.2,8.2,8.9c7.1,3.2,16.3,1.1,22.2-5.1c3.7-3.9,5.1-7.4,5.1-12.2c0-3.5-0.2-4.3-1.7-7.1c-2.5-4.7-6.5-9.9-11.1-14c-8.9-8.1-18.7-14.4-24.6-15.6C157.3,178.5,156.7,178.7,155.7,179.7z"/><path fill="#000000" d="M123.6,188.7c-2.6,2.8-6,8.7-9.4,16.1c-4.6,10.3-6.4,17.4-6.4,24.8c0,4.2,0.1,4.9,1.5,7.6c6.5,12.9,27.7,12.7,34.1-0.3c1.2-2.6,1.4-3.2,1.3-8.2c-0.1-6.2-1-11.1-3.5-18.4c-4.4-13-11.2-24-14.9-24C126.1,186.4,124.9,187.5,123.6,188.7z"/></g></g></g>
</svg>