<?xml version="1.0" standalone="no"?>
<!DOCTYPE svg PUBLIC "-//W3C//DTD SVG 20010904//EN"
 "http://www.w3.org/TR/2001/REC-SVG-20010904/DTD/svg10.dtd">
<svg version="1.0" xmlns="http://www.w3.org/2000/svg"
 width="1071.000000pt" height="334.000000pt" viewBox="0 0 1071.000000 334.000000"
 preserveAspectRatio="xMidYMid meet">

<g transform="translate(0.000000,334.000000) scale(0.100000,-0.100000)"
fill="#785d32" stroke="none">
<path d="M1587 2433 c-3 -4 -64 -161 -137 -348 -73 -187 -134 -341 -136 -343
-1 -2 -27 -6 -58 -9 -38 -4 -56 -10 -56 -20 0 -11 25 -13 135 -11 139 3 187
19 85 28 -65 6 -64 2 -16 121 l34 84 138 0 138 0 37 -97 c20 -53 34 -100 31
-103 -3 -3 -29 -5 -59 -5 -40 0 -53 -4 -53 -15 0 -13 24 -15 160 -15 131 0
160 3 160 14 0 9 -17 16 -50 21 l-49 7 -31 81 c-178 469 -237 612 -252 615 -9
2 -18 -1 -21 -5z m54 -291 l57 -157 -116 -3 c-63 -1 -117 0 -120 2 -2 3 21 78
53 166 32 88 61 158 64 154 3 -3 31 -76 62 -162z"/>
<path d="M3134 2426 c-129 -30 -224 -101 -273 -205 -23 -49 -26 -68 -26 -161
0 -92 3 -112 26 -161 46 -98 131 -165 249 -195 125 -32 339 -6 427 51 21 14
23 22 23 116 0 98 0 100 -22 97 -16 -2 -24 -11 -26 -28 -7 -76 -25 -129 -50
-153 -85 -82 -287 -89 -399 -14 -86 57 -133 191 -119 336 10 103 33 159 85
211 64 64 131 84 256 78 145 -8 208 -52 223 -158 6 -46 11 -55 27 -55 18 0 20
8 23 93 l3 93 -36 14 c-110 47 -286 65 -391 41z"/>
<path d="M8332 2430 c-187 -34 -307 -161 -319 -340 -13 -182 71 -318 232 -375
31 -12 90 -20 157 -23 123 -5 211 12 293 56 l50 27 3 122 3 122 57 3 c45 2 58
7 60 21 3 16 -10 17 -166 17 -93 0 -172 -3 -175 -7 -17 -16 19 -33 69 -33 l54
0 0 -108 c0 -100 -2 -110 -23 -130 -57 -54 -181 -75 -285 -48 -150 38 -213
133 -213 323 -1 166 43 258 148 309 53 27 67 29 168 29 99 0 115 -3 155 -25
51 -29 76 -71 85 -142 5 -39 10 -48 26 -48 19 0 20 6 17 103 l-3 102 -80 23
c-91 26 -234 36 -313 22z"/>
<path d="M232 2423 c-68 -3 -92 -7 -89 -16 2 -7 27 -13 60 -15 l57 -3 -2 -327
-3 -327 -52 -3 c-39 -2 -53 -7 -53 -18 0 -12 21 -14 135 -12 79 2 136 7 138
13 1 6 -24 11 -56 13 -34 2 -60 8 -63 15 -2 7 -3 140 -2 297 l3 285 158 -318
c136 -275 160 -318 178 -315 16 2 50 67 162 310 78 169 144 308 147 308 3 0 4
-128 2 -284 l-3 -284 -31 -6 c-17 -3 -41 -6 -54 -6 -15 0 -24 -6 -24 -15 0
-13 23 -15 167 -13 114 2 168 7 170 14 3 8 -18 14 -57 19 l-60 7 0 323 0 324
57 3 c31 2 58 8 60 15 5 15 -207 24 -223 9 -6 -6 -71 -144 -144 -306 -72 -162
-135 -298 -139 -302 -4 -5 -69 124 -145 285 -159 334 -161 338 -184 335 -9 -1
-59 -4 -110 -5z"/>
<path d="M3674 2421 c-2 -2 -4 -10 -4 -17 0 -9 20 -14 63 -16 l62 -3 0 -264 0
-263 -60 -23 c-151 -57 -288 -141 -380 -234 l-50 -51 -1577 0 c-1571 0 -1578
0 -1578 -20 0 -20 7 -20 1559 -20 l1560 0 -24 -42 c-40 -70 -25 -188 24 -188
18 0 18 2 -1 40 -17 34 -19 47 -10 81 6 22 21 56 34 74 l23 35 388 0 388 0
-15 -28 c-25 -49 -131 -186 -192 -250 l-59 -61 -362 -31 c-426 -36 -653 -42
-681 -16 -23 20 -42 21 -42 2 0 -53 217 -52 834 5 120 11 221 17 225 13 8 -9
-192 -198 -315 -297 -56 -45 -148 -110 -205 -143 -175 -103 -293 -141 -411
-131 -37 3 -68 2 -68 -3 0 -14 30 -20 112 -20 209 0 485 160 848 492 l126 115
179 12 c185 11 505 15 505 6 0 -3 -22 -33 -50 -66 -167 -201 -229 -360 -165
-424 37 -38 63 -32 29 7 -26 27 -20 88 13 160 27 56 133 206 210 296 l28 33
80 -12 c44 -6 105 -19 135 -30 30 -10 56 -19 57 -19 14 0 -4 -22 -37 -44 -44
-29 -74 -77 -65 -105 3 -11 19 -24 35 -31 75 -31 175 63 142 134 l-10 23 141
-5 c78 -2 176 1 217 6 41 6 76 9 78 7 2 -2 -12 -23 -31 -47 -40 -50 -147 -197
-147 -204 0 -11 39 -2 50 11 22 27 190 126 324 191 142 69 199 85 223 61 22
-22 5 -66 -67 -166 -33 -46 -60 -88 -60 -93 0 -20 34 -4 91 42 34 27 105 71
157 97 84 43 101 48 161 48 61 0 66 -2 69 -23 2 -12 -6 -38 -18 -57 -46 -74
-9 -112 95 -99 82 9 354 89 480 140 19 8 19 7 2 -19 -26 -39 -22 -82 9 -106
72 -57 428 10 691 129 l62 28 6 -61 c7 -77 -4 -118 -36 -134 -30 -14 -257 -53
-311 -53 -27 0 -38 -4 -35 -12 2 -7 17 -12 33 -12 75 4 113 4 161 -2 58 -7
110 6 163 41 19 13 70 33 114 44 43 12 122 38 175 57 101 38 318 141 327 155
13 22 -43 4 -157 -50 -124 -59 -314 -132 -378 -146 -25 -5 -32 -4 -26 5 4 7
11 64 16 128 7 103 10 118 32 140 33 32 101 41 146 17 36 -18 51 -14 31 10
-18 22 -88 38 -137 30 -53 -8 -108 -52 -116 -95 -8 -38 -72 -71 -258 -134
-214 -72 -415 -105 -470 -76 -30 17 -23 55 19 98 l37 39 87 1 c64 0 97 5 125
18 69 34 49 84 -33 84 -46 0 -104 -18 -179 -55 -142 -71 -471 -174 -577 -182
-91 -7 -94 -3 -53 82 14 28 23 58 20 67 -8 21 -49 38 -93 38 -50 0 -189 -50
-263 -94 -33 -20 -62 -36 -65 -36 -2 0 11 22 30 50 45 65 54 105 29 132 -16
18 -27 20 -85 16 -55 -4 -86 -15 -170 -56 -57 -28 -139 -73 -183 -100 -44 -28
-82 -48 -84 -46 -5 5 61 87 123 153 l51 53 -35 -5 c-19 -3 -66 -12 -105 -20
-107 -23 -245 -27 -273 -9 -17 11 -41 13 -92 10 -59 -5 -77 -2 -115 17 -24 13
-87 31 -140 40 l-95 17 19 27 c10 14 78 83 150 153 l130 128 2868 2 c2721 3
2868 4 2871 20 3 17 -139 18 -2839 20 l-2843 3 64 42 c122 79 186 103 271 103
72 0 138 18 122 33 -3 4 -39 7 -80 7 l-73 0 2 323 3 322 58 3 c40 2 57 7 57
17 0 10 -25 14 -102 17 -57 2 -107 2 -113 1 -5 -2 -73 -143 -149 -313 -77
-171 -143 -307 -147 -303 -4 5 -71 144 -150 310 -79 166 -148 304 -153 306 -6
1 -57 1 -113 -1 -78 -3 -103 -7 -103 -17 0 -10 17 -15 58 -17 l57 -3 0 -325 0
-325 -52 -3 c-38 -2 -53 -7 -53 -18 0 -11 24 -14 135 -14 111 0 135 3 135 15
0 10 -15 15 -57 17 l-58 3 -3 295 c-1 162 1 290 6 285 4 -6 75 -148 158 -317
122 -252 153 -308 169 -308 17 0 45 55 165 314 l145 314 3 -286 c1 -157 0
-287 -2 -289 -2 -2 -29 -7 -60 -10 -69 -7 -77 -30 -13 -35 l42 -4 -28 -12
c-34 -15 -173 -108 -182 -122 -4 -6 -146 -10 -405 -10 l-398 0 14 47 c49 163
-47 283 -227 283 l-59 0 0 255 0 255 61 0 c51 0 60 3 57 17 -3 14 -23 16 -171
17 -93 1 -171 -1 -173 -3z m361 -572 c52 -15 115 -77 116 -115 2 -51 -2 -78
-18 -131 l-16 -53 -380 0 -380 0 24 26 c51 55 186 147 291 199 61 30 115 52
120 49 4 -3 8 -22 8 -43 0 -44 -12 -51 -87 -51 -32 0 -43 -4 -43 -15 0 -13 26
-15 175 -15 146 0 175 2 175 15 0 10 -15 15 -57 17 l-58 3 -3 63 -3 62 48 0
c26 0 66 -5 88 -11z m710 -493 l-153 -154 -215 -1 c-118 -1 -270 -6 -337 -11
-68 -6 -126 -8 -129 -5 -2 3 16 27 41 53 59 60 154 186 179 234 l19 38 374 0
374 0 -153 -154z m2289 -252 c52 -20 -18 -54 -109 -54 l-50 1 30 16 c29 16 93
42 107 43 3 0 13 -3 22 -6z m-2076 -53 c5 -29 -21 -67 -59 -87 -34 -17 -59
-13 -59 11 0 19 90 107 104 102 6 -2 12 -14 14 -26z m2437 -261 c-11 -5 -33
-8 -50 -8 -29 0 -29 0 -5 8 14 4 36 8 50 8 23 1 23 0 5 -8z"/>
<path d="M5803 2423 c-203 -3 -243 -6 -243 -18 0 -10 16 -15 58 -17 l57 -3 0
-325 0 -325 -62 -3 c-47 -2 -63 -7 -63 -18 0 -12 51 -14 373 -12 l372 3 3 109
c3 113 -5 140 -33 116 -9 -8 -15 -29 -15 -57 0 -65 -22 -108 -60 -122 -20 -7
-107 -11 -222 -11 l-189 0 3 158 3 157 100 -3 c118 -4 132 -13 141 -83 5 -39
10 -49 25 -49 18 0 19 10 19 150 0 138 -1 150 -18 150 -14 0 -20 -12 -28 -52
-12 -68 -30 -78 -151 -78 l-93 0 0 151 0 151 183 -4 c199 -4 219 -9 237 -62 5
-16 10 -49 10 -73 0 -39 2 -44 21 -41 19 3 21 9 21 100 0 54 -3 102 -7 108 -4
6 -44 9 -103 8 -53 -2 -206 -4 -339 -5z"/>
<path d="M6393 2414 c-2 -6 -2 -57 -1 -115 2 -83 6 -104 18 -104 9 0 17 15 23
40 27 134 39 144 183 152 l94 6 -2 -329 -3 -329 -62 -3 c-47 -2 -63 -7 -63
-17 0 -13 29 -15 180 -15 151 0 180 2 180 15 0 10 -16 15 -62 17 l-63 3 -3
329 -2 329 92 -6 c51 -3 105 -11 120 -17 31 -14 58 -73 58 -124 0 -35 21 -63
40 -51 11 7 14 225 3 226 -5 0 -169 1 -367 2 -247 1 -360 -1 -363 -9z"/>
<path d="M7234 2421 c-2 -2 -4 -58 -4 -123 0 -110 1 -118 20 -118 19 0 21 4
34 104 8 60 28 83 86 95 57 12 350 15 350 4 0 -5 -117 -156 -260 -337 -143
-180 -257 -332 -254 -337 3 -5 158 -9 349 -9 l344 0 5 53 c3 28 7 88 8 132 3
74 2 80 -17 80 -16 0 -21 -9 -27 -50 -10 -73 -36 -131 -66 -152 -24 -16 -54
-18 -251 -21 -183 -3 -222 -1 -215 10 5 7 120 154 257 326 136 173 251 320
254 328 3 8 1 14 -3 15 -51 3 -607 3 -610 0z"/>
<path d="M9155 2420 c-152 -3 -239 -9 -238 -15 2 -5 29 -12 60 -15 l58 -5 0
-325 0 -325 -62 -3 c-47 -2 -63 -7 -63 -17 0 -13 53 -15 369 -15 l368 0 6 108
c3 79 1 111 -8 121 -22 23 -32 5 -38 -65 -4 -54 -10 -71 -31 -93 l-26 -26
-205 -3 -205 -3 0 160 0 160 98 -5 c122 -7 140 -17 144 -81 3 -40 6 -48 23
-48 19 0 20 8 23 148 l3 148 -23 -3 c-20 -3 -23 -10 -26 -50 -2 -27 -10 -52
-19 -59 -10 -9 -54 -15 -119 -17 l-104 -4 0 151 0 151 148 0 c241 -1 267 -12
278 -118 6 -52 10 -62 26 -62 17 0 18 8 16 108 l-3 107 -105 0 c-58 1 -213 -2
-345 -5z"/>
<path d="M2010 2405 c0 -12 13 -15 60 -15 l60 0 0 -324 0 -323 -60 -9 c-112
-17 -67 -29 115 -32 149 -2 175 0 175 12 0 11 -15 16 -62 18 l-63 3 -3 159 -3
159 108 -5 c115 -5 161 -20 187 -61 8 -12 19 -66 25 -119 18 -160 35 -178 176
-178 77 0 85 2 85 19 0 16 -7 18 -55 17 -37 -1 -59 4 -70 14 -9 10 -20 55 -29
121 -18 142 -32 164 -121 198 l-47 18 31 13 c44 18 97 81 105 123 16 85 -32
161 -121 191 -67 23 -493 24 -493 1z m435 -36 c65 -32 91 -115 60 -194 -24
-64 -66 -84 -182 -87 l-88 -3 -3 140 c-1 76 0 145 3 153 4 12 23 14 94 10 48
-3 100 -12 116 -19z"/>
<path d="M9770 2406 c0 -13 12 -16 60 -16 l60 0 0 -324 0 -323 -60 -9 c-112
-17 -67 -29 115 -32 149 -2 175 0 175 12 0 11 -15 16 -62 18 l-63 3 0 155 0
155 105 -1 c166 0 194 -24 211 -174 18 -166 35 -183 177 -178 69 2 87 6 87 18
0 11 -9 14 -30 12 -49 -4 -94 8 -105 27 -5 10 -14 61 -21 112 -16 133 -35 164
-125 199 -27 11 -43 19 -36 20 7 0 33 13 57 30 106 73 96 221 -18 283 -40 21
-56 22 -284 25 -215 3 -243 1 -243 -12z m398 -27 c72 -15 105 -53 109 -126 8
-117 -44 -161 -192 -165 l-90 -3 -3 140 c-1 76 0 145 2 152 7 16 104 17 174 2z"/>
</g>
</svg>
