<svg xmlns="http://www.w3.org/2000/svg" viewBox="0 0 431.65 455.94"><defs><style>.cls-1{fill:#937752;}</style></defs><g id="Layer_2" data-name="Layer 2"><g id="Layer_1-2" data-name="Layer 1"><path class="cls-1" d="M431.65.11V455.83h-5.53q-210,0-420.1.11c-4.89,0-6-1.47-6-6.15Q.17,228,0,6.24C0,1.6,1,0,6,0Q216,.21,426.08.11ZM230.2,70.85C200.26,74,174,85.33,150.69,103.25a301,301,0,0,0-53.2,52.9,204.14,204.14,0,0,0-21,32.48c-7.07,13.73-6.73,29.13-6.17,44.24.37,9.95.83,19.9,1.64,29.82,1.66,20.35,3.48,40.73,1.26,61.1-.62,5.62,1.24,6,5.62,6,31.76-.09,63.51,0,95.27-.07,1.73,0,3.47-.24,6-.42-1.07-2.24-1.67-3.73-2.45-5.12-7.48-13.31-15.16-26.51-22.47-39.91-11.64-21.36-19.48-44-20.61-68.46-1.47-32.12,8.15-60.83,27.88-86.2,16.22-20.85,36.66-36.95,58.22-51.79C223.91,75.57,227,73.17,230.2,70.85Zm121.07,211.2c-2.06,1.31-3.19,1.94-4.23,2.7-12.22,8.94-20,9.31-32.91,1.44a61,61,0,0,1-7-4.74c-18.48-15.21-39.05-26.82-60.91-36.44-15.8-6.95-31.21-14.78-44.38-26.29-23.79-20.78-25.1-53.64-3-76.15a24.75,24.75,0,0,0,4.42-5.37c1.19-2.24,1.68-4.84,2.88-8.53a43.56,43.56,0,0,0-4.22,1.85c-25.53,16.15-39.92,50.72-34.16,80.62,2.89,15,9.64,28.14,17.52,40.9,14.61,23.64,30.19,46.56,49.79,66.45,5.09,5.17,10.47,10,18,11.87,12.8,3.21,25.62,3,38.53,1.47,19.08-2.33,38.1-5.8,57.44-2.68a8.56,8.56,0,0,0,2.23-.34ZM347.42,52c-6.84.59-12.42,1.41-18,1.46-7.29.06-14.58-.46-21.87-.82-4-.2-6.78.63-8.54,5-1.37,3.4-4.28,6.25-6.76,9.12-2.83,3.26-6.14,6.11-8.87,9.44-3.28,4-4.09,8.06-.8,13,7.79,11.75,14.87,24,22.48,35.84q20.54,32.05,41.41,63.9c1,1.47,2.46,2.58,4.54,4.7,0-5.1,0-8.74,0-12.38.09-12.13.29-24.26.27-36.39,0-23.57.09-47.14-.44-70.7C350.64,66.72,348.58,59.28,347.42,52ZM180,53.3,179.23,52c-9.08.52-18.15,1.47-27.23,1.46-24.24,0-48.48-.5-72.72-.73-6.1-.05-6.62.56-6.62,6.45q0,30.16,0,60.32c0,1.6.15,3.2.23,4.81l1.21,1.19C106.8,97.56,140.5,71.15,180,53.3Zm92.61,71.94c-1.9,6-3.73,11.25-5.2,16.59a58.93,58.93,0,0,0-1.36,8.81c-.56,5,1.81,8.45,6.49,9.81,8.32,2.42,16.75,4.46,26.27,7C291.79,151.51,282.76,138.27,272.61,125.24ZM128.47,370.34a30.36,30.36,0,0,0,2.67-2.32c3.39-3.83,4.29-8.21,2.26-12.92-1.91-4.42-5.46-6.41-10.32-6.24-3.48.13-7-.2-10.43.16-1.15.12-3,1.73-3.05,2.69q-.36,12.93,0,25.86c0,.88,2,2.21,3.24,2.36.77.09,2.29-1.49,2.53-2.54a24.9,24.9,0,0,0,.12-5.57c4.91-2.21,7.14.37,9.38,3.58,3.79,5.44,4.25,5.5,9.64,3.68Zm46.16-20.09-1.2.88v28.7h6.12V365.4l9.29,10.42,8.54-9.64,1,.45v13.16h5.72V348.72c-5.66,6.47-10.36,11.86-15.32,17.54Zm194.66,4.88c4.71,0,9.17.22,13.58-.15,1.11-.1,2.06-2.11,3.08-3.24-1-.93-2.06-2.61-3.15-2.67-5.63-.27-11.29-.24-16.93,0-1,0-2.79,1.53-2.81,2.38-.2,9.39-.13,18.79-.13,28.66,6.84,0,12.95,0,19.06,0,2.06,0,4,.18,4-2.91,0-3.27-2-3.3-4.28-3.28-4.09,0-8.19,0-12.48,0v-6.06c3.67,0,7.12,0,10.57,0,2.39,0,4.22-.33,4.19-3.47s-2.13-3.23-4.38-3.23H369.29ZM81.62,367.91c4.57,0,8.37.08,12.16,0,2.67-.08,3.47,1.16,3.35,3.63-.14,2.76,0,5.53,0,8.28h6c0-9.08-.14-17.85,0-26.62.11-4.64-2.13-4.83-6.18-3.61V360.8H81.54V349.49c-4.44-1.39-6.06-.2-5.92,4,.23,7.3.25,14.62,0,21.92-.17,4.62,1.71,5.47,6,4ZM217.35,371c2.85,0,5.3.16,7.73,0,6.33-.5,11.14-5.64,10.84-11.39a11.36,11.36,0,0,0-11.47-10.75A88.32,88.32,0,0,0,214,349c-1.19.11-3.19,1.58-3.21,2.47-.24,9.39-.15,18.8-.15,28.46h6.19C217,377.05,217.16,374.45,217.35,371ZM24.5,370.81c3.24,0,5.71.19,8.15,0,6.63-.64,10.54-4.87,10.41-11-.14-6.29-4.58-10.62-11.18-10.79a73.21,73.21,0,0,0-9.94.11c-1.18.13-3.13,1.65-3.16,2.58-.24,8.61-.22,17.24,0,25.85,0,.88,1.79,2.39,2.72,2.37a3.91,3.91,0,0,0,2.89-2.34C24.84,375.7,24.5,373.65,24.5,370.81Zm15.08,9.54c3.18-.35,6,.07,6.49-.83,3.74-6.49,9.78-2.82,14.72-3.62A3.86,3.86,0,0,1,64,377.5c1.85,3.68,4.5,2.73,7.94,2.06l-16-31.35Zm269.29-.86-16-31.23L277.08,379.5c6.77,2.66,9.56-4.45,15.75-4.42S301.86,382,308.87,379.49Zm-147.64-30c0,1.59,0,3.2,0,4.81-.14,4.46,0,9-.59,13.37s-4.14,6.85-8.12,6.12-6.21-3.26-6.08-7.67c.17-5.58,0-11.17,0-16.91h-5.88a15.24,15.24,0,0,0-.38,2.23c0,5.64-.13,11.28.14,16.91.35,7.21,5.31,11.64,12.71,11.75,8,.12,12.95-3.88,13.51-11.38.39-5.11,0-10.28.31-15.4C167.14,349,165.4,348.07,161.23,349.53Zm104.86,17c-2.66-5.55-4.95-9.72-6.66-14.1-1.54-4-3.93-4.12-7.87-2.66l13.85,29.5,1.47-.27,13.75-29.45c-4.47-1.33-6.79-.52-8.2,3.33C270.9,357,268.7,361,266.09,366.49Zm133.29,13.25h6.95c-3.34-12.66,6.61-20.26,10.76-30.41-10.23-2.5-8.91,8.57-14.6,11.57-1.69-2.82-3.37-5.62-5-8.43-2.52-4.23-3.28-4.48-8.44-2.51C393.4,359.47,402.87,367.1,399.38,379.74ZM317.31,349c-3.11,0-6.26-1.57-6.27,3,0,8.28-.1,16.56.17,24.83,0,1.13,1.9,3.08,3,3.14a135.63,135.63,0,0,0,16.38,0c1.16-.07,2.21-2,3.31-3.09-1.19-1-2.26-2.65-3.59-2.89a30,30,0,0,0-7.92-.09c-3.8.34-5.37-.87-5.16-5C317.56,362.57,317.31,356.12,317.31,349Zm41.49,31.05c1.64-4.9.08-6.66-4.5-6.19-2.3.24-4.65-.11-6.95.08-3.2.26-4.45-.91-4.34-4.22.21-5.79.22-11.6-.08-17.38-.06-1.18-1.88-2.27-2.89-3.4-1,1.16-2.84,2.29-2.88,3.47-.25,8.11-.23,16.23,0,24.34,0,1.12,1.61,3.11,2.55,3.15C346.11,380.21,352.53,380.08,358.8,380.08Zm-72.66,36.48,1.93.06V396.53l-1.53-.62-6.94,9.91L272,395.18c-2.84,6.29-2.23,19.28,1,21.8.21-4.2.4-8,.65-12.72l6.1,7,5.58-7.65C285.65,408.6,285.9,412.58,286.14,416.56Zm-28.15.62c5.76,0,10.91-5,10.92-10.62s-5.34-10.73-11-10.62-10.58,5-10.63,10.43A10.85,10.85,0,0,0,258,417.18ZM112.18,396a47.64,47.64,0,0,0-1.29,20.49l2.17.1q.41-6.18.82-12.41l5.32,6.13,6.14-5.8c0,3.87-.1,7,.07,10.1,0,.77.93,1.51,1.43,2.26.65-.57,1.87-1.13,1.88-1.71.14-6.34.09-12.67.09-19l-2.42-.75c-2.25,3.46-4.49,6.92-7,10.75-1.35-2.06-2.38-3.72-3.51-5.31S113.43,397.6,112.18,396Zm24.35,21c6.57.2,10.37-3.8,8.61-8.54a24.29,24.29,0,0,1-1.42-6.68c-.33-4.93-3.78-5.07-7.4-5.39-4.07-.35-4.11,2.13-4,5.05.12,3.65.22,7.32,0,11S133.37,417.4,136.53,417Zm25.17-21.22c0,6.67-.08,12.62.08,18.57,0,.86,1.14,1.69,1.75,2.53.63-.8,1.6-1.52,1.82-2.43a31.44,31.44,0,0,0,.45-5.07l1.44-.59c1.53,1.75,3,3.58,4.62,5.22a29,29,0,0,0,3.58,2.67c-.23-1.4-.09-3-.77-4.16-1.42-2.36-2.4-4.09-.49-7.05,2.34-3.62-.12-8.19-4.45-9.2C167.54,395.75,165.18,396,161.7,395.77ZM308,416.92c3.41-3.07,3.69-16.09.63-21l-7.11,10c-2.62-3.64-4.9-6.79-7.57-10.48-3,6.93-2.06,19.15,1.47,20.29V403.51c2.41,2.7,4.25,6.35,6,6.3,2.11-.07,4.13-3.22,6.6-5.41Zm34,.93c.21-2,.55-2.78.29-3.16-2.29-3.34-4-6.41-1.47-10.73.76-1.31-.75-5.33-2.33-6.28-2.32-1.39-5.67-1.57-8.48-1.3-.8.08-1.64,3.52-1.79,5.47a88.9,88.9,0,0,0,0,10.95,19.68,19.68,0,0,0,1.1,4.16l1.61,0c.53-2.53,1.06-5.06,1.89-9Zm-145.24-.75a10.7,10.7,0,0,0,10.64-10.28A10.85,10.85,0,0,0,197.2,396c-5.73-.18-11,4.93-10.94,10.58A10.81,10.81,0,0,0,196.75,417.1Zm-37.52-19.62c-2.58-2.73-6.21-1.6-9.24-1.18-1,.13-2,3.25-2.2,5.09a58.8,58.8,0,0,0,0,9.93c.13,1.83.57,5.06,1.31,5.19,3.23.57,6.62.24,10,.24l0-2.22-7.32-1.2v-4.72l6.8-2.05-.21-1.6-6.58-1.12C149.65,396,158,401.79,159.23,397.48Zm-58.75-.61-2.09.11L90.2,415.81l1.35,1.37c5.19-9.19,10.57-8.72,16.1.23l.86-1.75Q104.49,406.27,100.48,396.87Zm224.06,1.25.61-1.3c-2.93-.19-5.93-.8-8.75-.34-1,.17-1.95,3-2.13,4.65a55.1,55.1,0,0,0,0,9.44c.13,2,.43,5.54,1.25,5.72,3.07.69,6.39.28,9.61.28l.15-1.9a19.79,19.79,0,0,0-3.66-.79c-2.25-.07-4.86.06-4.13-3.15.29-1.25,2.37-2.19,3.77-3.05a22.24,22.24,0,0,1,3.68-1.44c-2.21-3.23-8,.57-7.27-4.68C317.84,400.11,322.13,399.25,324.54,398.12Zm-255.24,1c-3.18-4.39-6.69-3.58-10-2.31-5.14,2-7.44,7.11-6,12.58s5.88,8.37,11.58,7.78c3.52-.36,4-.85,4.1-4.12-8.52,1.51-12.53-.25-13.16-5.78C55.29,402.34,58.74,400.09,69.3,399.1Zm178.14,14.18c-10.81.46-13.64-.56-13.91-5.64-.47-9,6.28-8.64,13.17-8.14-2.67-4.55-6-3.94-9.07-3.05a10.41,10.41,0,0,0-7.49,10.5c.16,4.4,3.58,9.17,7.72,9.86C241.23,417.37,245.17,418.32,247.44,413.28Zm111.27-15c-1.3-3.3-4.63-2.57-7.48-2a10.74,10.74,0,0,0-8.21,11,11.11,11.11,0,0,0,9.63,9.84c4.56.38,5.89-.35,6.89-3.76-9.85.46-13.11-1-13.21-6.35,0-1.69.52-4.34,1.65-4.93C351.22,400.39,354.9,399.52,358.71,398.23ZM75.07,397.16l-1.87,0c-.85,6.31-1.2,12.6.9,19.15,2.16-3.72-.27-10.4,8-9.24,6.65.92,2.38,6.53,5.72,9.54V397.27l-1.16-.09c-.34,2.48-.67,4.95-1,7.31H76Zm297-.66c-3,0-6.17-.39-9.07.25-.83.18-1.24,3.35-1.4,5.19-.23,2.64,0,5.32-.08,8-.09,7.15,1.3,8.37,8.4,7,.78-.15,1.44-1,2.15-1.48-.67-.54-1.29-1.43-2-1.54a31.11,31.11,0,0,0-4.6-.07c-4.55-8.25,5-4.9,6.7-8.71l-6.9-.78C361.88,396.21,370.17,400.82,372.05,396.5ZM209.9,416.71l1.79,0c.36-2.86.72-5.72,1.06-8.38l6.88-1.67c0-.5-.07-1-.1-1.51a15.5,15.5,0,0,1-3.95-.71,16.36,16.36,0,0,1-3.21-2.5c1-.88,2-2.09,3.18-2.56a20.38,20.38,0,0,1,4.74-.68l0-2.24c-3.18,0-6.45-.5-9.48.14-.88.19-1.4,3.54-1.53,5.48-.25,3.62-.15,7.26-.06,10.89A22.48,22.48,0,0,0,209.9,416.71Z"/><path class="cls-1" d="M120.52,364.05c-2.71.24-5,.13-5-4.19-.06-4.49,2.16-4.67,5.52-4.66,3.63,0,7.16.45,7,4.87S124,364.09,120.52,364.05Z"/><path class="cls-1" d="M217.21,363.45c1.17-3.16-2.86-8.44,4.41-8.22,3.69.11,7.26.35,7.47,5.08C229.24,363.84,225.94,364.74,217.21,363.45Z"/><path class="cls-1" d="M29.77,355.31c4.19-.41,7.53.81,7.37,4.92-.17,4.61-4.35,3.85-7.59,4.11-3.54.27-4.92-.87-5-4.69C24.5,355.12,26.79,354.78,29.77,355.31Z"/><path class="cls-1" d="M55.84,361l3.67,7.73H52.29Z"/><path class="cls-1" d="M289.34,368.55c1.07-2.39,1.92-4.3,3.29-7.33l4,7.33Z"/><path class="cls-1" d="M265.13,406.52a7,7,0,0,1-6.95,7.31,6.9,6.9,0,0,1-7.2-7.09c0-4.1,3.21-7.49,7-7.38A7.1,7.1,0,0,1,265.13,406.52Z"/><path class="cls-1" d="M134.8,412.76l3-5.39,4.52,3.57-5.16,3.79Z"/><path class="cls-1" d="M165.74,405.13v-6.65l5.35,4-3.91,4Z"/><path class="cls-1" d="M334,399.06l3.43,3.9-5.1,4.44V400Z"/><path class="cls-1" d="M204.14,406.44a7.1,7.1,0,0,1-6.87,7.44,7.24,7.24,0,0,1-7.88-7,7.71,7.71,0,0,1,7-7.66A7.62,7.62,0,0,1,204.14,406.44Z"/></g></g></svg>