<svg xmlns="http://www.w3.org/2000/svg" viewBox="0 0 354.19 420.87"><defs><style>.cls-1{fill:#937752;fill-rule:evenodd;}</style></defs><g id="Layer_2" data-name="Layer 2"><g id="Layer_1-2" data-name="Layer 1"><path class="cls-1" d="M17.39,0V319.42H332V0ZM185.62,40.39h28.92a58.93,58.93,0,1,1,0,117.86l-28.92,0h0V40.39ZM150.25,276.58H62.64V40.42h87.61V276.58Zm35.37.25V165.75L298.88,276.83Z"/><polygon class="cls-1" points="60.24 398.55 83.43 398.55 83.43 390.24 60.24 390.24 60.24 379.21 85.36 379.21 85.36 370.91 50.28 370.91 50.28 419.34 86.48 419.34 86.48 411.04 60.24 411.04 60.24 398.55 60.24 398.55 60.24 398.55"/><polygon class="cls-1" points="157.35 370.91 147.39 370.91 147.39 419.34 180.54 419.34 180.54 411.04 157.35 411.04 157.35 370.91 157.35 370.91 157.35 370.91"/><polygon class="cls-1" points="185.97 379.21 200.65 379.21 200.65 419.34 210.62 419.34 210.62 379.21 224.76 379.21 224.76 370.91 185.97 370.91 185.97 379.21 185.97 379.21 185.97 379.21"/><path class="cls-1" d="M345,372.69a9.23,9.23,0,1,0,9.21,9.21,9.23,9.23,0,0,0-9.21-9.21ZM345,390a8.12,8.12,0,1,1,8.1-8.14A8.1,8.1,0,0,1,345,390Z"/><path class="cls-1" d="M37.8,413.56c-.07-2.46-.2-8.84-.47-10.83-.53-4.38-3.72-5.58-5.38-6.71,3.26-1.93,5.38-3.45,6.58-7.64a16.29,16.29,0,0,0-.46-9.76c-1.4-5.25-6.32-7.51-11.17-7.71H0v48.43H10V400.21h11.7c3.45,0,5.84,1.59,6,4.85-.14,3.52-.14,7.37,0,9.76A11.11,11.11,0,0,0,29,419.34h10.7v-1.8h0c-1.06-.66-1.86-1.26-1.86-4ZM23.58,391.9H10V379.21H23.45c4.45,0,6.05,2,6.05,5.45a6.42,6.42,0,0,1-5.92,7.24Z"/><path class="cls-1" d="M121.82,370.91H110.33L93.46,419.34h10.16l3.39-9.7h17.93l3.32,9.7h10.17l-16.61-48.43Zm-12.09,30.43,6.38-18.8,6.44,18.8Z"/><path class="cls-1" d="M270.12,376.16c-4.05-4.19-10-6.05-16.14-6.05s-12.09,1.86-16.14,6.05c-4.52,4.71-7.18,12-7.18,19.33s2.66,14.61,7.18,19.33c4,4.19,10,6.05,16.14,6.05s12.09-1.86,16.14-6.05c4.52-4.72,7.18-12,7.18-19.33s-2.66-14.62-7.18-19.33Zm-7.24,32.75a13.81,13.81,0,0,1-17.8,0c-3.19-2.92-4.78-8.17-4.85-13.42s1.66-10.5,4.85-13.42a13.81,13.81,0,0,1,17.8,0c3.19,2.92,4.79,8.17,4.85,13.42s-1.66,10.5-4.85,13.42Z"/><path class="cls-1" d="M325.18,413.56c-.07-2.46-.2-8.84-.47-10.83-.53-4.38-3.72-5.58-5.38-6.71,3.26-1.93,5.38-3.45,6.58-7.64a16.2,16.2,0,0,0-.47-9.76c-1.39-5.25-6.31-7.51-11.16-7.71h-26.9v48.43h10V400.21H309c3.45,0,5.84,1.59,6,4.85-.14,3.52-.14,7.37,0,9.76a11.11,11.11,0,0,0,1.32,4.52H327v-1.8h0c-1.06-.66-1.86-1.26-1.86-4ZM311,391.9H297.34V379.21h13.49c4.45,0,6.05,2,6.05,5.45A6.42,6.42,0,0,1,311,391.9Z"/><path class="cls-1" d="M349.72,379.48a2.53,2.53,0,0,0-1.16-2.22,4.73,4.73,0,0,0-2.51-.51h-4.5v10.32h1.26v-4.76h2.32l2.95,4.76h1.49l-3.11-4.76h0c1.83-.05,3.26-.8,3.26-2.83Zm-5,1.84h-1.93v-3.65h2.95c1.28,0,2.68.19,2.68,1.79,0,2.1-2.25,1.86-3.7,1.86Z"/></g></g></svg>