<svg xmlns="http://www.w3.org/2000/svg" viewBox="0 0 374.24 375"><defs><style>.cls-1{fill:#937752;}</style></defs><g id="Layer_2" data-name="Layer 2"><g id="Layer_1-2" data-name="Layer 1"><path class="cls-1" d="M175.15,0H199.1c1.34.25,2.67.54,4,.75C212,2.13,221,2.87,229.65,5c103,24.63,164.83,127.4,138.54,230-18,70.25-76.49,124.43-148.08,137.08-6.72,1.19-13.51,2-20.26,3H174.4c-1.07-.25-2.14-.55-3.22-.73-9.57-1.56-19.28-2.51-28.69-4.73C71.65,352.86,15.1,292.48,3,220.91c-1.16-6.86-2-13.77-3-20.66v-25.5c.25-1.08.55-2.15.73-3.24C2.27,162,3.21,152.42,5.4,143.1,22.14,71.64,81.76,15.56,154.11,3,161.08,1.79,168.13,1,175.15,0ZM105.61,222.09C97.22,211.28,93,198.84,81.83,191.43c2.53-.84,4.81-1.46,7-2.34a16.42,16.42,0,0,0,10.05-10.85c3.64-12-4.11-23.16-17-23.68-11.69-.47-23.42-.19-35.13-.23a2.84,2.84,0,0,0-1,.38v67.18h8.86V192.06a61.69,61.69,0,0,0,7.11,0c8.6-1.08,14.57,2.59,18.94,9.79,3.69,6.07,7.64,12,11.59,17.89.68,1,1.9,2.18,3,2.28C98.29,222.29,101.39,222.09,105.61,222.09ZM259,195.55c1.73,12.32-.14,15.2-11.41,18.34-.24.07-.47.18-.71.24-13.33,3.38-26.1-2.62-30-14.31a35.89,35.89,0,0,1,.74-25.29c3.61-9,10.94-13.45,21.67-13.52,10.18-.06,15.35,3.45,19.39,13.16a11.64,11.64,0,0,0,.79,1.37l7.76-2.35c-2.91-12.53-11-18.5-22.83-19.84-14.85-1.69-32.4,3-37.44,24.71a52.87,52.87,0,0,0-1.07,14.86c.88,14.93,10.2,25.69,24.69,29.22,11.84,2.89,22.66.34,32.9-5.92,3.51-2.14,5.44-4.48,5-8.94-.47-5.34-.09-10.74-.12-16.12,0-1.18-.16-2.37-.24-3.5H239.72v7.89ZM140,154.91v67c10.34,0,20.44.52,30.47-.13,12.17-.8,19.79-8,23.28-19.53a47.87,47.87,0,0,0-.06-28.77c-3.12-9.85-9.36-17.37-20-18.31C162.63,154.15,151.39,154.91,140,154.91ZM290.88,213.8V191.14h36.86v-8.32H290.92V162.24h39.57V154.5h-48.8v67.27H332v-8Zm-38.65-96.86c1.27.92,2.28,1.63,3.27,2.38,11.31,8.58,22.6,17.19,34,25.7.76.57,2.06.41,3.11.59-.47-.89-.72-2.05-1.44-2.63-4.2-3.32-8.51-6.5-12.78-9.74l-23.77-18.09,15.94-11.85c6.77,5.13,13.42,10.14,20.05,15.18,11.6,8.82,23.16,17.69,34.81,26.45.93.7,2.37.74,3.57,1.09.11-1.37,0-1.75-.29-2-18.73-14.25-37.45-28.53-56.29-42.62-.92-.69-3.34-.35-4.45.4-4.52,3.08-8.87,6.43-13.15,9.84-1.77,1.41-3.11,1.42-4.86,0-4.3-3.4-8.78-6.57-13-10-1.68-1.36-2.81-1.43-4.52-.09-4.31,3.38-8.92,6.38-13.12,9.88-2.11,1.76-3.43,1.53-5.36-.07-3.75-3.09-7.77-5.83-11.52-8.91-2.59-2.12-4.5-2.33-7.44-.09-17.82,13.6-35.86,26.9-53.78,40.38-.89.67-1.31,2-1.94,3,1.15-.29,2.54-.26,3.43-.92,11.64-8.56,23.2-17.22,34.78-25.85l21.21-15.82,15.61,11.94-39.49,29.58c2.21,2.78,3.63.67,4.85-.24,12.29-9.12,24.52-18.31,37-27.63L232,128.61c-6.66,5-13,9.67-19.15,14.46-.74.58-.94,1.85-1.39,2.8,1-.22,2.12-.18,2.86-.72,5.65-4.08,11.3-8.17,16.77-12.5,2.32-1.83,3.94-2.06,6.35-.06,5.27,4.36,10.79,8.43,16.31,12.48.86.63,2.28.5,3.44.72l.31-1.26-20.88-15.92ZM188.23,232q69.57,0,139.16-.08c1.6,0,4.2,1.64,4.72-1.54a12.69,12.69,0,0,0-4.66-1.22q-138.8-.1-277.58-.06a10.47,10.47,0,0,0-3,.09c-.75.22-1.33,1-2,1.53.63.42,1.22,1.08,1.91,1.21a17.79,17.79,0,0,0,3.35.07Zm-72.92-77.5v67.33H124V154.49ZM263.48,259.93a57.7,57.7,0,0,0,7.57-1.2c4.56-1.38,7.31-4.86,7.41-8.84s-2.41-7.57-6.93-9.22a18.53,18.53,0,0,0-15.57.81c-3.14,1.65-5.21,4.27-5.21,8.05a8.68,8.68,0,0,0,5.39,8.3C258.56,258.94,261.31,259.34,263.48,259.93ZM50.57,251.18c8.94-1.93,11,2.07,13.42,8.52l4.84-.32-6.34-8.44c3.15-1.05,6.21-2.11,5.76-6.16-.35-3.18-2.75-4.54-5.47-4.68-5.19-.27-10.41-.08-15.87-.08v19.23h3.66Zm166.78.79.88,1.15c-.93,1-1.78,2.84-2.81,3a36.8,36.8,0,0,1-10.58.11c-2.88-.51-4.88-2.83-5-6.2a6.54,6.54,0,0,1,4.69-6.89,14.44,14.44,0,0,1,14.57,2.17c.66-1,1.3-2,2-3a18.42,18.42,0,0,0-4.07-1.44c-3.9-.39-7.91-1.12-11.74-.65a9.87,9.87,0,0,0-8.88,9.21c-.11,4.37,3.21,8.46,8.42,9.64,5.89,1.34,11.62.88,16.44-3-.2-2.21-.37-4.21-.58-6.53H210.56v2.81Zm9.11-12V259.2H230V251c8.38-1,10,0,13.91,8.44l4.09-.29-6.32-8.3c3.36-1.06,6.22-2.21,6-6-.19-3-3.06-4.8-7.36-4.87C235.75,239.9,231.15,240,226.46,240ZM81.92,134.8H67.21v-8.12l-3.46.25v19h3.47v-8.36h14.7V146H85.4V126.89H81.92ZM76.59,250.73H87.47V248H76.68v-5.54H92.75l-.15-2.6H73.12v19.49H92.68v-2.44H76.59ZM95.25,143.66v-6.12h10.82v-2.83H95.25v-5.44h15.67l-.15-2.64H91.63v19.63h19.74l-.15-2.6ZM310.12,240v19.53l3.55-.32v-8.58c3.79,0,7.38.17,10.95,0,3.75-.22,6.12-2.5,6-5.35s-2.66-5.08-6.27-5.2C319.68,239.86,315,240,310.12,240Zm-190.8,19.28c-3.6-6.56-7-12.81-10.52-19.19h-3.36c-3.57,6.52-7,12.76-10.56,19.25h4.44c.05-3.59,1.43-5.7,5.38-5.17a14.82,14.82,0,0,0,4.1,0c4.09-.61,6,1.26,6,5.12Zm181.83-19.19c0,4.46,0,8.79,0,13.12,0,3.45-2.6,4-5.15,3.93-3.5-.14-7.67,1.57-9.92-2.92a1.79,1.79,0,0,1-.06-.74V240.11h-3.09v5.6c0,2,0,4,0,6,0,4.77,1.39,6.86,6,7.47a38,38,0,0,0,10.31-.35c3.22-.45,4.83-2.67,4.76-6.08-.09-4.18,0-8.37,0-12.66Zm-250-94.13v-16.8h9.32l-.16-2.61H38.41v2.77h9.25v16.64Zm110.9,96.47v-2.66H139.91l.33,2.68h9.19V259h3.43V242.41Zm15.68,16.86c-3.71-9.2,4.23-13.12,8.49-19.13h-4l-6.8,8.41-7.05-8.43h-4.66c2.08,2.18,3.55,4,5.3,5.51,4.25,3.66,5.9,8,3.91,13.64ZM122.47,240.1v19.45h19.85v-2.93H126.25V240.1Z"/><path class="cls-1" d="M54.86,162.12c8.43,0,16.64-.32,24.8.1,6.53.34,10.49,4.73,10.54,10.46A10.4,10.4,0,0,1,80,183.53c-8.29.49-16.62.12-25.18.12Z"/><path class="cls-1" d="M149.05,213.52V162.41c8.6.39,17.19-1.14,25.48,1.51,5.32,1.7,8.51,6.14,10.08,11.32a42.61,42.61,0,0,1-.54,26.83c-2.29,6.61-6.95,10.83-13.92,11.34S156.29,213.52,149.05,213.52Z"/><path class="cls-1" d="M250,115.17l-15.67,11.68-15.47-11.7c4.82-3.61,9.48-7.2,14.29-10.59a3.45,3.45,0,0,1,3.13.18C240.81,108,245.19,111.48,250,115.17Z"/><path class="cls-1" d="M265.64,257.29c-1.66-.09-2.28-.09-2.9-.17-5.35-.68-8.67-3.68-8.54-7.7.14-4.22,3.75-7.15,9.3-7.18a22.84,22.84,0,0,1,6.93,1,6.69,6.69,0,0,1,.31,12.6A39,39,0,0,1,265.64,257.29Z"/><path class="cls-1" d="M50.55,242.38c3.92,0,7.74-.23,11.51.14,1.1.11,2,1.92,3,2.95C64,246.4,63,248,61.82,248.14c-3.66.34-7.37.12-11.27.12Z"/><path class="cls-1" d="M230.09,242.3a98.31,98.31,0,0,1,10.89.14c1.31.14,2.46,1.83,3.69,2.81-1.29,1-2.49,2.75-3.88,2.93-3.42.43-6.93.14-10.7.14Z"/><path class="cls-1" d="M313.66,248.25v-5.88a94.56,94.56,0,0,1,10.65.15c1.09.12,2,2,2.95,3.08-1,.89-2,2.42-3.05,2.53C320.78,248.46,317.3,248.25,313.66,248.25Z"/><path class="cls-1" d="M111.46,251.49H102.6l4.43-8.2Z"/></g></g></svg>