<svg xmlns="http://www.w3.org/2000/svg" viewBox="0 0 141.94 142"><defs><style>.cls-1{opacity:0.5;}.cls-2{fill:#a5a5a5;}</style></defs><g id="Layer_2" data-name="Layer 2"><g class="cls-1"><g id="Layer_1-2" data-name="Layer 1"><path class="cls-2" d="M132.55,141.93a.84.84,0,0,0,.65-.27l8.74-8.75v6.28a1.77,1.77,0,0,0-.17.12l-2.42,2.42a1.94,1.94,0,0,0-.14.2h2.73s0,.07,0,.07h-.3"/><path class="cls-2" d="M120.86,141.92a.76.76,0,0,0,.44-.21l12.31-12.3c2.77-2.78,5.56-5.55,8.33-8.33v6.28l-.28.22-14,14c-.08.08-.15.17-.28.32h.44"/><path class="cls-2" d="M109.05,141.92a.64.64,0,0,0,.4-.2c.6-.58,1.19-1.18,1.78-1.77l24.67-24.67,6-6v6.29a2.92,2.92,0,0,0-.28.21l-25.84,25.84-.29.32h.2"/><path class="cls-2" d="M85.26,141.93a.8.8,0,0,0,.61-.26l19.51-19.52,28.41-28.4,8.15-8.15v6.28l-.28.22-23.41,23.42L92.16,141.6l-.3.33c1.8,0,3.5,0,5.2,0a.89.89,0,0,0,.67-.28q13.5-13.53,27-27l17.19-17.19v6.28a3.61,3.61,0,0,0-.3.25Q122.82,122.77,104,141.59l-.28.3.15,0"/><path class="cls-2" d="M73.37,141.93a.91.91,0,0,0,.7-.29l37.16-37.17,24.85-24.85,5.86-5.85v6.28c-.19.17-.39.33-.57.51Q120.17,101.74,99,122.94q-9.31,9.3-18.61,18.61l-.36.38"/><path class="cls-2" d="M61.57,141.93a.9.9,0,0,0,.68-.28q31.25-31.26,62.5-62.51l17.19-17.2v6.29c-.11.09-.23.17-.33.27l-6.22,6.22-47.9,47.91L68.54,141.57l-.33.36"/><path class="cls-2" d="M49.94,141.92a.6.6,0,0,0,.37-.19c.63-.61,1.24-1.23,1.86-1.85l53.21-53.21,28.41-28.4,8.15-8.15V56.4l-.28.22-5.72,5.72L82.71,115.57l-26,26-.3.33"/><path class="cls-2" d="M37.92,141.93a.81.81,0,0,0,.64-.27l24.77-24.78L111.23,69l24.85-24.85,5.86-5.85v6.28c-.16.14-.33.27-.49.43L94.28,92.17,45.1,141.35c-.17.17-.34.34-.51.53l.1,0"/><path class="cls-2" d="M26.07,141.93a.9.9,0,0,0,.71-.29q49-49,98-98l17.19-17.2v6.29l-.31.25L99.93,74.71,52,122.6l-19,19-.33.36"/><path class="cls-2" d="M14.27,141.93a.84.84,0,0,0,.65-.27L48.62,108l55-55,30.16-30.16,8.18-8.17v6.28a3,3,0,0,0-.28.22l-9.28,9.28L79.15,83.65l-58,58c-.09.09-.16.18-.28.32h.43"/><path class="cls-2" d="M2.39,141.93a.87.87,0,0,0,.71-.29L15.43,129.3l47.9-47.9,47.9-47.9L136.08,8.65l5.86-5.84V9.09c-.11.09-.23.17-.33.27L104.13,46.83Q75.08,75.9,46,105,27.76,123.22,9.48,141.48l-.43.45h.46"/><path class="cls-2" d="M0,132.51c0,.1,0,.2,0,.3l.1.05a5.32,5.32,0,0,1,.38-.45Q37.42,95.5,74.34,58.59L132.58.34a2.88,2.88,0,0,0,.27-.34h6.29l-.34.35-46,46-47.9,47.9Q22.79,116.36.63,138.5A1.8,1.8,0,0,0,0,140"/><path class="cls-2" d="M0,120.75a1.76,1.76,0,0,0,0,.27l.27-.26,5.7-5.7L59.26,61.83,120.81.28c.08-.08.14-.19.22-.28h6.28L127,.37,72.07,55.25,18.84,108.48.25,127.06a.73.73,0,0,0-.24.58"/><path class="cls-2" d="M0,108.79c0,.12,0,.23,0,.41l.33-.31,9.75-9.75q23.94-24,47.9-47.9L108.92.33c.1-.1.19-.22.28-.33h6.28l-.29.29Q97.28,18.2,79.36,36.12,50.16,65.34,20.93,94.55L.29,115.2a.89.89,0,0,0-.26.53"/><path class="cls-2" d="M0,97c0,.12,0,.23,0,.34l.1,0a5.32,5.32,0,0,1,.38-.45L40.58,56.86,97.1.34c.1-.1.18-.23.27-.34h6.28c-.11.12-.21.24-.33.35L71.55,32.12q-24,24-47.93,47.93L.31,103.36a.89.89,0,0,0-.3.7"/><path class="cls-2" d="M0,85.14c0,.12,0,.23,0,.41l.31-.29L25.54,60.07,85.32.28A1.93,1.93,0,0,0,85.54,0h6.29l-.34.35Q82.66,9.17,73.83,18L20.62,71.22Q10.43,81.39.27,91.58a.89.89,0,0,0-.24.57"/><path class="cls-2" d="M0,73.31c0,.11,0,.23,0,.41.14-.14.24-.22.33-.32L24.31,49.47,73.44.33c.1-.1.18-.22.28-.33H80L49.92,30.08.3,79.7a.87.87,0,0,0-.29.67"/><path class="cls-2" d="M0,61.49c0,.12,0,.24,0,.41l.33-.31L5.1,56.86,61.39.57c.18-.18.33-.38.5-.57h6.28l-.33.35L23.6,44.59Q12,56.23.31,67.87a.91.91,0,0,0-.3.71"/><path class="cls-2" d="M0,49.66c0,.11,0,.23,0,.41l.31-.29L49.84.28A1.93,1.93,0,0,0,50.06,0h6.29L56,.34,43.68,12.68.27,56.08a.78.78,0,0,0-.26.61"/><path class="cls-2" d="M0,37.81v.37l.12.06a1.66,1.66,0,0,1,.22-.3L38,.33c.1-.1.18-.22.28-.33h6.28l-.34.34L.3,44.22a.85.85,0,0,0-.29.67"/><path class="cls-2" d="M0,26.14a1.76,1.76,0,0,0,0,.27l.27-.26L26.19.28A1.93,1.93,0,0,0,26.41,0h6.28l-.33.35L20.08,12.63.3,32.4a.89.89,0,0,0-.29.68"/><path class="cls-2" d="M0,14.19v.42l.29-.27q7-7,14.08-14.08A2.48,2.48,0,0,0,14.58,0h6.28l-2,2L.26,20.62a.8.8,0,0,0-.23.5"/><path class="cls-2" d="M0,2.81,2.09.72c.23-.23.44-.48.66-.72H9C6.11,2.93,3.18,5.85.27,8.79A.84.84,0,0,0,0,9.35"/></g></g></g></svg>