<svg xmlns="http://www.w3.org/2000/svg" viewBox="0 0 1209.18 211.87"><defs><style>.cls-1{fill:#fff;}</style></defs><g id="Layer_2" data-name="Layer 2"><g id="Layer_1-2" data-name="Layer 1"><path class="cls-1" d="M144.35,153.39c1,1.24.77,2.75,1.07,4.15,2.26,10.54,9.47,17.42,19.21,22.19a57,57,0,0,0,37.24,4.67C213.57,182,225,178,233.23,169a26.39,26.39,0,0,0,4.67-7.72c1.76-4.25-.3-8.06-3.6-10.64-7.3-5.7-15.79-8.48-25.41-6.63-6.92,1.33-10,7.34-7.07,13.26.41.85,1.12,1.69.68,2.75-5.08-.87-10.14-6.24-10.62-11.31s3.08-9.55,9.42-11.79c14-4.93,33.7-.49,43.95,10.21,5.92,6.18,5.52,13.77,1.9,20.2-6.73,12-17.94,18.2-30.84,22-16.88,5-34,6.56-51.15.41-9.58-3.44-17.84-8.42-24.06-16.36-9.77-12.46-10.16-25.87-6.18-40.17,2-7.11,5.65-13.33,10-19.19,5.15-7,11.82-12.71,18.92-18C182.92,81.88,205,74.12,228.66,70.1c15.09-2.56,30.27-2.74,45.27,1.37,9.71,2.66,13.19,4.08,17.55,8.5-4.24-1.33-7.8-2.88-11.54-3.54-9.74-1.73-19.61-1.71-29.49-1.16-20.09,1.1-39.06,6.39-57.08,14.43-15.72,7-29.29,16.68-39.51,30.26-4.58,6.09-6.77,12.93-9.29,19.74a3,3,0,0,0,.54,2.74C143.63,146,144.89,149.76,144.35,153.39Z"/><path class="cls-1" d="M1050,132.54c.41-7.89-5.87-11.55-11.07-15.06-8.81-5.94-16.84-6.66-25.39-1.19-9.16,5.87-12.93,15.78-8.9,26.72a25,25,0,0,0,9.83,12.38c6.07,4.13,13.25,6.69,20.57,6.41,13.54-.51,26.4-4,36.87-12.61A29.38,29.38,0,0,0,1083,127.5c.29-6.1-1.82-12.09-5.26-17.37a131.9,131.9,0,0,0-11.41-15.39c-5.55-6.29-12.7-10.38-19.71-14.62A98.27,98.27,0,0,0,1010,66.51c-22.51-3.32-45.07-4.5-67.23,2.32-2.16.67-4.23,1.59-6.42,2.43,2.14-3.53,4.5-4.94,10.68-7.2,20.21-7.42,40.86-7.56,62.1-4.83A122.43,122.43,0,0,1,1046,69.64c10.39,4.86,20.49,10.4,28.41,18.49a79.68,79.68,0,0,1,15.47,21.49c2.74,5.82,5.64,11.63,4.92,18.11-1.07,9.72-4.61,18.61-12.49,25.4-15.29,13.15-33.16,18.11-53.91,16-13.71-1.41-24.6-6.89-31.84-17.24-6.59-9.42-7.14-20.15-1.38-30.62,6.49-11.82,18.11-17.28,31.48-16.26,8.1.63,15.31,2.49,21.82,7,4,2.82,6,6.8,7.4,11C1057,126.35,1054.08,130.64,1050,132.54Z"/><path class="cls-1" d="M82.15,138.53c-3.44.54-4.23,3.95-6.76,5.44-2.33,4.67-3.56,9.63-5,14.6a25.69,25.69,0,0,1-12.73,16.19c-4.29,2.3-6.54,1.05-7.39-3.73-.78-4.41,1.24-8.28,3.89-11.28a74.52,74.52,0,0,1,20.29-16.57l2.91-3a16.93,16.93,0,0,0-3,.29c-14.12,4.13-27.48,8.9-33.6,23.51-2.22,5.28-.23,13.95,4.26,17.14,3.93,2.8,13.49,3.11,18.45.4C72.85,176.39,77.79,168.2,81,159A35,35,0,0,0,82.15,138.53Z"/><path class="cls-1" d="M144.35,153.39c-1.06-3.73-1.9-7.44.76-10.95C144.81,146.09,145.67,149.81,144.35,153.39Z"/><path class="cls-1" d="M1197.25,73c-10.18-6.3-27.1-7.88-37.27-1-3.65,2.49-5.79,5.62-5.41,10.06.35,4.15,2.83,6.75,6.56,8.54,5.59,2.67,11.29,2,17.17.33-4.42-.81-6.8-4.13-9.85-6.55-4.14-3.29-2.55-4.59.77-6.75a10.85,10.85,0,0,1,4.35-1.28,25.64,25.64,0,0,1,18.84,4.79c5.95,4.27,6.71,13.67,1.88,19-7.09,7.73-16.47,9.33-26.55,8.64a68.83,68.83,0,0,1-23.62-6.29c-7.17-3.2-13.92-7.1-19.19-12.76-4-4.36-7.16-9.44-11.57-13.58-6.72-6.33-13.56-12.41-22-16.86-5.45-2.88-10.61-6.28-16.23-8.88a201.5,201.5,0,0,0-36.23-12.83c-28.12-7-56.56-9-85.43-7.34-8,.45-16,1.06-23.88,2.24-19.31,2.89-38.57,6-57,12.5-10.21,3.61-20.84,6.14-31.28,9.17-8.6,2.5-17.18,5-25.79,7.5-1.53.44-3.4.84-2.21-1.92-8.46,3.64-17.46,5.08-26.39,6.73a234,234,0,0,1-35.62,3.82c-6.68.2-13.41-.64-20.1-1.17-14.87-1.17-29.12-5.14-42.75-10.4C673.7,53,660.75,44.38,650.7,32.49,646.06,27,642,21.13,639.85,14.33,638.43,9.91,636.3,5.64,637.13,0c-1.78,1.61-3.33,2.11-3.7,3.65-1.43,6-1.9,12.15,0,18,2.6,7.9,7.65,14.74,13.9,20.47,11.54,10.59,24.37,19.26,39.92,24.52,14.75,5,29.6,9,45.19,10.43.91.09,1.79.13,1.91,1.26-5.88,1-11.84.86-17.76,1.35-16.44,1.35-32.73-.38-48.8-3.17a63.14,63.14,0,0,1-31-14.82c-9.48-8.21-13.62-18.07-14.34-29.63a47.43,47.43,0,0,1,8.72-30.55,36.23,36.23,0,0,0-10.08,9.81c-2.54,3.89-4.6,8-7.28,12.93a47.75,47.75,0,0,0-6.95-12.73c-2.54-3.42-8.71-7.27-12.05-7.55,2.35,1.61,2.14,3.64,2,5.65-.14,3-1.26,5.7-2.23,8.55C590.81,29.25,581.9,36,572.35,42.26,559.1,51,543.93,56.1,529.18,61.87c-17.65,6.91-36.38,9.87-55.41,10.68-17.62.75-35.32.49-52.62-3-16.75-3.4-32.78-9.33-49.39-13.4-19.85-4.87-39.42-10.44-59.83-13.48-29.71-4.44-59.22-5.25-88.94-1-21.12,3-41.67,7.87-61,16.52-16,7.17-30.82,16-43,28.37-2.71,2.76-5,6-8.52,8.07a45.81,45.81,0,0,1-17.41,5.54c-6.37.77-12.75.11-18.26-2.93a18.85,18.85,0,0,1-9.28-12.11c-1.08-3.83,0-6.78.72-10,2-9.25,16-15,24.69-10.18,2.33,1.3,5,3.38,3.59,6.29-.91,1.8-2.16,4-4.94,4.67s-5.53,2-8.39,2.57c-2.52.53-2.13,1.43-1.13,2.95,1.83,2.79,6.34,4.35,10.61,3.49a23.31,23.31,0,0,0,14-8.7c2.39-3,1.92-8.61-.21-11.89-4.6-7.1-11.85-9.21-19.94-9.6C71,54,60.26,60.91,55.05,72.86a21.48,21.48,0,0,0,2.42,21.89c8.49,11.86,21.76,14.57,36.16,13.9,2.89-.14,5.67-1.28,8.87-1a35.72,35.72,0,0,1-1.64,4.32c-5.29,9.86-5,20.27-3.38,30.75.94,6,5.27,11.34,9.64,12.94,0-3.55-2.69-6.38-2.58-10.07.32-10.31,1.94-20.2,6.52-29.79a87.14,87.14,0,0,1,21-27.95c15.8-14,34.65-23.42,55.25-29.61a266,266,0,0,1,57.81-10.61c21.64-1.55,43.14.18,64.48,2.85,21,2.63,41.29,8.82,61.65,14.26,19.43,5.19,38.32,12,58.34,15.53,21.32,3.74,42.13,9.75,64,10.89,17.68.91,35.27,2.4,53,.56,20-2.08,38.75-7.1,54.18-20,4.95-4.14,9.72-8.52,12.81-14.12,2-3.58,1.74-3.7,4.85-.84a9.07,9.07,0,0,1,1.18,1.37c6.12,8.52,14.46,14.62,23.89,19.6,9,4.78,19.15,6.09,29.06,8A136,136,0,0,0,691.41,88c16.91.8,33.75.63,50.47-2.36,8.09-1.45,16.28-2.44,24.37-3.93a636.83,636.83,0,0,0,92-24,388.43,388.43,0,0,1,40-10.87,350.57,350.57,0,0,1,78.86-9c4.39,0,8.77.41,13.16.65,16.64.91,32.93,4,49,7.83,13.47,3.23,26,8.88,38,15.54,7.33,4.07,14.52,8.23,20.82,13.71a104.72,104.72,0,0,1,20.61,24.88c5.19,8.48,7.59,17.61,8.65,27.09.63,5.63.64,11.42-2.15,16.81,13-9.86,10.23-23.37,9.58-36.56.75.4,1.4.78,2.08,1.1s1.63.71,2.44,1.06c15.5,6.75,31.34,10.11,48.16,4.46,8.44-2.84,16.15-6.91,19.72-14.88C1211.17,90.65,1209.85,80.77,1197.25,73Zm-595-17.43C598,63.24,590.82,69,582.66,73.23c-12.61,6.61-26.5,8.9-40.62,10.39-12.65,1.34-25.27.13-37.91,0a141.78,141.78,0,0,1-24.34-2.53c8.82-1,17.6-1.69,26.06-3.79a352.17,352.17,0,0,0,39.44-12.1c11.9-4.47,23.57-9.35,34-16.58,8.5-5.91,15.7-12.88,19.65-22.17,2.15-5.06,2.15-10.6,1.37-16.12a3.27,3.27,0,0,1,3.1,2.46C608.53,27.18,609.85,41.68,602.22,55.54Z"/><path class="cls-1" d="M1149.62,180.1c-5.59-9-13.73-15.84-23.41-20.92-2-1-2.42-2.11-1.52-4.74a30,30,0,0,1-2.85,2.52c-8.46,5.26-11.62,12.87-10.51,22,1.27,10.32,7.39,18.14,15.48,24.92,4.32,3.63,9.31,4.67,14.79,4.79,5.67.13,11.39-5.07,12.38-10C1155.37,191.8,1153.08,185.65,1149.62,180.1ZM1142.69,198c-.38,2.26-1.74,3.27-4.41,1.9-5.83-3-9.22-7.89-12.48-13-5-7.86-2.38-16.37-3-25.51,4.85,3.37,7.41,7.34,10.16,11.09a64.84,64.84,0,0,1,8.7,14.92A19.87,19.87,0,0,1,1142.69,198Z"/><path class="cls-1" d="M1094.31,168.64c-.94-.53-2.44.12-3.66.65a37.4,37.4,0,0,1-4.69,1.57c-14,4-27.93,8.3-40.82,15-6.08,3.15-11,7.26-11.82,13.07,0,6.74,3.74,11.45,10.17,12.52,8.78,1.47,16.93-.82,24.47-5.13,7.06-4,12.66-9.59,17.53-15.7,4.4-5.51,8.59-11.31,9.07-18.58C1094.64,170.84,1095.46,169.29,1094.31,168.64Zm-33.2,32.81c-3.76,2.28-7.66,3.92-12.23,3.63-2.31-.15-4.74-.2-5.59-2.88a6.33,6.33,0,0,1,1.8-7c4.63-4.34,10.55-6.69,16.37-9.14,6.75-2.84,13.6-5.46,20.41-8.18C1075.77,186.42,1070.65,195.67,1061.11,201.45Z"/><path class="cls-1" d="M78.09,118.22c-.25-.84-1.23-.29-2,0-2,.77-3.56,2.43-5.89,2.48-11.73.28-23.37,1.58-35,2.89-10.29,1.16-20.51,2.74-29.1,8.6-7.78,5.32-8.8,12,.61,17.29,4.7,2.62,10.36,3.43,16,3.34,2.06-.17,4.13-.24,6.16-.51,10.52-1.42,19.87-5.57,28.48-11.19,5.63-3.68,11.09-7.49,15.6-12.53,2.3-2.57,1.75-6.63,5.61-8.2C79.6,120,78.3,118.91,78.09,118.22ZM17.2,144.55A6.61,6.61,0,0,1,12,141.27c-.93-1.66,1.62-2.34,2.77-3.29a24,24,0,0,1,8.53-4A281,281,0,0,1,62.6,125.9C49.13,136.75,35.71,146.05,17.2,144.55Z"/><path class="cls-1" d="M14,48.22a1.5,1.5,0,0,0,0-3,1.5,1.5,0,0,0,0,3Z"/></g></g></svg>